<?xml version="1.0" encoding="utf-8"?>
<!-- Uploaded to: SVG Repo, www.svgrepo.com, Generator: SVG Repo Mixer Tools -->
<svg fill="#ffffff" width="800px" height="800px" viewBox="0 0 32 32" version="1.1" xmlns="http://www.w3.org/2000/svg">
<title>axe-swing</title>
<path d="M30.093 12.692c-1.774-6.829-7.85-11.274-14.417-11.067-5.525-0.33-11.117 2.011-14.511 6.444 1.63-1.388 3.567-2.394 5.631-2.968-3.891 3.356-5.914 8.693-4.979 14.080 0.068-1.766 0.488-3.479 1.206-5.041 0-0.001 0-0.001 0-0.002 0.072 3.219 1.154 6.384 3.263 8.961-2.401-4.803-1.4-12.225 2.622-15.115-0.045 0.032-0.089 0.065-0.133 0.099 0.729-0.373 1.504-0.677 2.321-0.903 6.692-1.849 13.557 2.267 15.352 9.165 1.148 4.415-0.069 8.9-2.847 12.043 0.169-0.191 0.331-0.386 0.488-0.587-3.353-0.632-3.327-3.939 0.875-7.183l-3.074-2.282c-0.123 0.361-0.253 0.699-0.39 1.014l-12.063-8.505c-1.168-0.674-1.907 0.703-0.984 1.297l12.272 8.652c-2.045 3.074-4.905 2.424-6.17-0.921-3.37 2.851-1.807 7.954 1.432 10.21 2.952 2.057 7.354 1.625 9.29-1.975 4.27-3.602 6.34-9.562 4.818-15.417zM16.088 1.655c0.015 0.001 0.031 0.003 0.046 0.004-0.015-0.001-0.031-0.003-0.046-0.004zM16.506 1.695c0.018 0.002 0.036 0.004 0.054 0.006-0.018-0.002-0.036-0.004-0.054-0.006zM16.943 1.748c0.011 0.001 0.021 0.003 0.032 0.004-0.011-0.002-0.022-0.003-0.032-0.004zM17.508 6.136c-0.090-0.047-0.18-0.092-0.271-0.137 0.091 0.045 0.181 0.090 0.271 0.137zM17.14 5.952c-0.066-0.032-0.131-0.063-0.197-0.093 0.066 0.031 0.131 0.062 0.197 0.093zM16.837 5.809c-0.067-0.031-0.135-0.060-0.202-0.090 0.068 0.029 0.135 0.059 0.202 0.090zM16.541 5.679c-0.097-0.041-0.195-0.082-0.293-0.121 0.098 0.039 0.195 0.080 0.293 0.121zM16.21 5.543c-0.087-0.034-0.174-0.068-0.261-0.1 0.087 0.032 0.174 0.066 0.261 0.1zM15.851 5.407c-0.069-0.025-0.138-0.050-0.207-0.074 0.069 0.024 0.138 0.049 0.207 0.074zM14.53 4.998c-0.074-0.019-0.148-0.037-0.222-0.055 0.074 0.018 0.148 0.036 0.222 0.055zM15.54 5.298c-0.073-0.025-0.147-0.049-0.221-0.072 0.074 0.024 0.147 0.048 0.221 0.072zM15.236 5.199c-0.101-0.032-0.203-0.062-0.305-0.092 0.102 0.029 0.203 0.060 0.305 0.092zM14.888 5.095c-0.088-0.025-0.176-0.049-0.264-0.072 0.088 0.023 0.176 0.047 0.264 0.072zM7.457 4.933c-0.221 0.051-0.44 0.107-0.658 0.167 0.218-0.061 0.437-0.117 0.658-0.167zM10.832 4.541c-0.102 0-0.203 0.002-0.305 0.004 0.102-0.002 0.203-0.004 0.305-0.004zM10.473 4.546c-0.095 0.003-0.19 0.006-0.286 0.011 0.095-0.004 0.19-0.008 0.286-0.011zM10.147 4.559c-0.222 0.011-0.444 0.027-0.666 0.047 0.221-0.021 0.443-0.036 0.666-0.047zM9.472 4.607c-0.105 0.010-0.21 0.021-0.314 0.033 0.105-0.012 0.209-0.023 0.314-0.033zM9.117 4.644c-0.102 0.012-0.203 0.025-0.305 0.039 0.101-0.014 0.203-0.027 0.305-0.039zM8.794 4.686c-0.223 0.031-0.445 0.067-0.667 0.108 0.221-0.041 0.444-0.077 0.667-0.108zM8.122 4.794c-0.106 0.020-0.211 0.040-0.317 0.062 0.105-0.022 0.211-0.043 0.317-0.062zM7.775 4.863c-0.106 0.022-0.211 0.045-0.317 0.069 0.105-0.024 0.211-0.047 0.317-0.069zM3.124 11.997c0.013-0.115 0.028-0.231 0.044-0.346-0.016 0.115-0.030 0.23-0.044 0.346zM3.042 12.966c0.002-0.032 0.003-0.065 0.005-0.097-0.002 0.032-0.003 0.065-0.005 0.097zM3.061 12.667c0.004-0.054 0.008-0.107 0.013-0.161-0.005 0.054-0.009 0.107-0.013 0.161zM3.088 12.337c0.007-0.070 0.014-0.14 0.022-0.211-0.008 0.070-0.015 0.14-0.022 0.211zM9.043 7.889c0.006-0.004 0.011-0.008 0.017-0.012h0c-0.006 0.004-0.011 0.008-0.017 0.012zM10.849 4.541c0.219-0.001 0.438 0.004 0.658 0.013-0.219-0.009-0.438-0.014-0.658-0.013zM14.213 4.92c-0.082-0.019-0.165-0.037-0.247-0.055 0.082 0.018 0.165 0.036 0.247 0.055zM13.903 4.851c-0.106-0.022-0.211-0.043-0.317-0.063 0.106 0.020 0.212 0.041 0.317 0.063zM13.547 4.782c-0.092-0.017-0.184-0.033-0.276-0.048 0.092 0.015 0.184 0.031 0.276 0.048zM13.188 4.721c-0.080-0.013-0.161-0.025-0.241-0.036 0.080 0.011 0.161 0.023 0.241 0.036zM12.865 4.673c-0.095-0.013-0.189-0.025-0.284-0.036 0.095 0.011 0.189 0.023 0.284 0.036zM12.551 4.634c-0.11-0.012-0.22-0.024-0.33-0.033 0.11 0.010 0.22 0.021 0.33 0.033zM12.192 4.598c-0.097-0.009-0.194-0.016-0.29-0.023 0.097 0.007 0.194 0.014 0.29 0.023zM11.832 4.571c-0.088-0.006-0.175-0.010-0.263-0.014 0.088 0.004 0.175 0.009 0.263 0.014zM18.227 1.972c0.021 0.004 0.042 0.009 0.062 0.014-0.021-0.005-0.042-0.009-0.062-0.014zM18.627 2.063c0.032 0.008 0.063 0.015 0.095 0.023-0.032-0.008-0.063-0.016-0.095-0.023zM19.031 2.166c0.034 0.009 0.068 0.018 0.101 0.027-0.034-0.009-0.068-0.018-0.101-0.027zM19.448 2.283c0.028 0.008 0.056 0.016 0.085 0.025-0.028-0.009-0.056-0.016-0.085-0.025zM20.328 2.57c0.026 0.009 0.052 0.019 0.079 0.029-0.026-0.010-0.052-0.020-0.079-0.029zM20.712 2.713c0.042 0.016 0.084 0.033 0.127 0.050-0.042-0.017-0.084-0.034-0.127-0.050zM21.095 2.867c0.047 0.019 0.093 0.039 0.139 0.059-0.046-0.020-0.093-0.039-0.139-0.059zM21.48 3.033c0.046 0.021 0.092 0.041 0.138 0.062-0.046-0.021-0.092-0.042-0.138-0.062zM21.876 3.217c0.040 0.019 0.079 0.038 0.119 0.057-0.040-0.019-0.079-0.038-0.119-0.057zM23.13 29.608c-0.037 0.021-0.073 0.042-0.11 0.063 0.037-0.021 0.073-0.042 0.11-0.063zM22.908 29.112c0.055-0.053 0.11-0.107 0.164-0.162-0.054 0.054-0.109 0.108-0.164 0.162zM22.319 29.647c-0.050 0.043-0.101 0.085-0.152 0.127 0.051-0.042 0.102-0.084 0.152-0.127zM23.599 28.389c-0.055 0.062-0.111 0.124-0.167 0.185 0.056-0.061 0.112-0.123 0.167-0.185zM23.427 28.58c-0.055 0.060-0.111 0.119-0.167 0.178 0.056-0.059 0.112-0.118 0.167-0.178zM23.252 28.767c-0.055 0.057-0.11 0.114-0.166 0.17 0.056-0.056 0.111-0.113 0.166-0.17zM22.889 29.13c-0.053 0.051-0.107 0.102-0.162 0.153 0.054-0.051 0.108-0.101 0.162-0.153zM22.702 29.306c-0.052 0.049-0.106 0.097-0.159 0.144 0.053-0.048 0.106-0.096 0.159-0.144zM22.512 29.479c-0.051 0.046-0.103 0.091-0.155 0.136 0.052-0.045 0.104-0.090 0.155-0.136zM21.72 30.127c-0.048 0.036-0.096 0.071-0.144 0.106 0.048-0.035 0.096-0.070 0.144-0.106zM22.122 29.811c-0.049 0.040-0.099 0.080-0.148 0.119 0.050-0.039 0.099-0.079 0.148-0.119zM21.923 29.971c-0.048 0.038-0.096 0.074-0.145 0.111 0.048-0.037 0.097-0.074 0.145-0.111zM21.804 21.556v0 0zM21.306 30.425c-0.070 0.048-0.14 0.096-0.211 0.143 0.103-0.039 0.206-0.079 0.308-0.121-0.102 0.041-0.204 0.082-0.308 0.121 0.071-0.047 0.141-0.094 0.211-0.143zM21.514 30.278c-0.049 0.035-0.099 0.070-0.149 0.105 0.050-0.035 0.1-0.070 0.149-0.105zM22.864 29.757c-0.044 0.024-0.087 0.048-0.132 0.071 0.044-0.023 0.088-0.047 0.132-0.071zM22.584 29.905c-0.048 0.025-0.097 0.050-0.146 0.074 0.049-0.024 0.097-0.049 0.146-0.074zM22.297 30.049c-0.053 0.026-0.106 0.051-0.159 0.076 0.053-0.025 0.106-0.050 0.159-0.076zM22.004 30.187c-0.058 0.027-0.116 0.052-0.174 0.078 0.058-0.026 0.116-0.052 0.174-0.078zM21.706 30.32c-0.066 0.029-0.133 0.056-0.2 0.084 0.067-0.028 0.134-0.056 0.2-0.084zM23.304 29.509c0.016-0.010 0.032-0.019 0.048-0.029-0.016 0.010-0.032 0.019-0.048 0.029zM24.057 29.032c0.008-0.005 0.015-0.010 0.023-0.015-0.008 0.005-0.015 0.010-0.023 0.015zM25.034 28.309c0.009-0.008 0.019-0.015 0.028-0.023-0.009 0.008-0.019 0.015-0.028 0.023zM24.292 28.869c0.015-0.010 0.029-0.021 0.044-0.031-0.015 0.010-0.029 0.021-0.044 0.031zM24.54 28.69c0.015-0.011 0.031-0.023 0.046-0.034-0.015 0.011-0.031 0.023-0.046 0.034zM24.788 28.503c0.014-0.011 0.027-0.021 0.041-0.032-0.014 0.011-0.027 0.021-0.041 0.032z"></path>
</svg>