<?xml version="1.0" encoding="utf-8"?>
<!-- Uploaded to: SVG Repo, www.svgrepo.com, Generator: SVG Repo Mixer Tools -->
<svg fill="#ffffff" width="800px" height="800px" viewBox="0 0 32 32" version="1.1" xmlns="http://www.w3.org/2000/svg">
<title>spinning-sword</title>
<path d="M28.396 24.92c4.349-5.985 3.826-14.41-1.571-19.807-5.507-5.507-14.165-5.94-20.168-1.302-0.869-1.018-1.71-2.033-2.463-2.995l-3.227 3.227c0.962 0.745 1.983 1.57 3.008 2.423-4.743 6.008-4.343 14.748 1.203 20.293 5.379 5.379 13.765 5.917 19.746 1.615l1.274 1.274 4.826 1.202-1.362-4.665-1.266-1.266zM20.631 17.154l-7.288-7.288 2.729-2.729-1.99-1.99c5.647-0.282 10.325 6.479 6.549 12.006zM13.949 5.155l-3.241 3.242c-0.394-0.436-0.802-0.889-1.219-1.355 1.461-1.204 2.991-1.784 4.461-1.886zM7.315 9.315c0.453 0.395 0.894 0.784 1.317 1.159l-3.367 3.368 2.052 2.052 2.563-2.564 14.952 14.952c-11.952 8.045-27.183-6.773-17.517-18.967z"></path>
</svg>