<?xml version="1.0" encoding="iso-8859-1"?>
<!-- Uploaded to: SVG Repo, www.svgrepo.com, Generator: SVG Repo Mixer Tools -->
<!DOCTYPE svg PUBLIC "-//W3C//DTD SVG 1.1//EN" "http://www.w3.org/Graphics/SVG/1.1/DTD/svg11.dtd">
<svg fill="#ffffff" height="800px" width="800px" version="1.1" id="Capa_1" xmlns="http://www.w3.org/2000/svg" xmlns:xlink="http://www.w3.org/1999/xlink" 
	 viewBox="0 0 195 195" xml:space="preserve">
<path d="M166.75,129.623h-18.951L92.335,89.566c-7.796-5.63-12.928-14.335-14.071-23.802l-4.9-48.841
	c-0.205-2.044-1.925-3.601-3.98-3.601H11.144c-1.176,0-2.293,0.518-3.053,1.416c-0.76,0.898-1.086,2.085-0.892,3.245
	c3.769,22.512,10.748,67.847,10.188,78.296c-0.225,4.201-3.499,9.463-6.966,15.033c-6.229,10.01-13.981,22.467-8.63,36.792
	c5.466,14.635,17.578,22.37,35.027,22.37c6.465,0,13.534-1.089,21.011-3.236c5.443-1.563,11.016-2.323,17.039-2.323
	c11.266,0,22.021,2.68,32.422,5.271c7.858,1.958,15.28,3.807,22.479,4.393c2.484,0.202,5.25,0.305,8.222,0.305
	c10.91,0,23.252-1.386,31.685-2.548c10.563-1.456,18.529-10.594,18.529-21.257C188.205,139.248,178.581,129.623,166.75,129.623z
	 M66.423,117.962c-0.97,5.011-6.3,14.489-19.531,14.489c-13.684,0-17.618-9.89-17.787-15.12c-0.071-2.208,1.661-4.056,3.869-4.127
	c2.209-0.077,4.056,1.662,4.127,3.869c0.069,1.193,0.873,7.378,9.791,7.378c10.011,0,11.613-7.682,11.676-8.009
	c0.42-2.168,2.518-3.588,4.688-3.167C65.425,113.694,66.842,115.793,66.423,117.962z"/>
</svg>