<?xml version="1.0" encoding="utf-8"?>
<!-- Uploaded to SVGRepo https://www.svgrepo.com -->
<!-- License: CC0. Made by SVG Repo: https://www.svgrepo.com/svg/308899/target-hit-succeed-aim -->
<svg version="1.1" id="Layer_1" xmlns="http://www.w3.org/2000/svg" xmlns:xlink="http://www.w3.org/1999/xlink" x="0px" y="0px"
	 width="260px" height="260px" viewBox="0 0 260 260" enable-background="new 0 0 260 260" xml:space="preserve">
<path d="M218,94h3.023C228.057,108.874,232,125.484,232,143c0,63.411-51.589,115-115,115S2,206.411,2,143S53.589,28,117,28
	c17.516,0,34.126,3.943,49,10.977V42v9.574l-7.979,7.979C145.64,53.441,131.715,50,117,50c-51.28,0-93,41.72-93,93s41.72,93,93,93
	s93-41.72,93-93c0-14.716-3.441-28.641-9.552-41.022L208.426,94H218z M164,143c0,25.916-21.084,47-47,47s-47-21.084-47-47
	s21.084-47,47-47c1.472,0,2.926,0.077,4.363,0.21l18.351-18.351C132.596,75.37,124.957,74,117,74c-38.047,0-69,30.953-69,69
	s30.953,69,69,69s69-30.953,69-69c0-7.957-1.37-15.596-3.859-22.714l-18.35,18.35C163.923,140.074,164,141.528,164,143z M218,74
	l40-40h-32V2l-40,40v17.857l-61.425,61.425c-2.373-0.828-4.92-1.283-7.575-1.283c-12.703,0-23,10.297-23,23
	c0,12.703,10.297,23,23,23c12.703,0,23-10.297,23-23c0-2.655-0.455-5.202-1.283-7.575L200.143,74H218z"/>
</svg>
