<svg version="1.2" xmlns="http://www.w3.org/2000/svg" viewBox="0 0 100 100" width="100" height="100">
	<title>prime</title>
	<style>
		<!-- use $dc-purple hex code values -->
		.s0 { fill: #a049b4 } 
		<!-- white -->
		.s1 { fill: #ffffff } 
	</style>
	<path id="Background" class="s0" d="m3.5 188c-53.4 0-96.5-40.2-96.5-90 0-49.8 43.1-90 96.5-90 53.4 0 96.5 40.2 96.5 90 0 49.8-43.1 90-96.5 90z"/>
	<path id="Star" class="s1" d="m67.6 55.1l-21.1-3.2-9.4-20.1q-0.8-1.8-2.1-1.8-1.3 0-2.1 1.8l-9.4 20.1-21.1 3.2q-2.4 0.4-2.4 2 0 1 1.1 2.1l15.3 15.7-3.7 22q0 0.6 0 0.9 0 0.9 0.4 1.6 0.4 0.6 1.3 0.6 0.8 0 1.7-0.5l18.9-10.4 18.9 10.4q0.9 0.5 1.7 0.5 0.8 0 1.3-0.6 0.4-0.7 0.4-1.6 0-0.6 0-0.9l-3.7-22 15.3-15.7q1.1-1.1 1.1-2.1 0-1.6-2.4-2z"/>
</svg>