<?xml version="1.0" encoding="utf-8"?>
<!-- License: CC Attribution. Made by wishforge.games: https://www.wishforge.games/ -->
<svg height="800px" width="800px" version="1.1" id="Icons" xmlns="http://www.w3.org/2000/svg" xmlns:xlink="http://www.w3.org/1999/xlink" 
	 viewBox="0 0 32 32" xml:space="preserve">
<path fill="#741a89" d="M29.6,8.2l-5.7-5.7c-0.2-0.2-0.4-0.3-0.7-0.3h0c-0.3,0-0.5,0.1-0.7,0.3l-0.2,0.2c-1,1-1.3,2.5-0.9,3.8l-6,6
	c-0.6,0.6-0.9,1.3-0.9,2.1c0,0.5,0.1,0.9,0.3,1.3l-3,3l-2.9-2.9c-0.4-0.4-1-0.4-1.4,0L4,19.6c-1.1,1.1-1.8,2.7-1.8,4.3
	S2.8,27,4,28.2c1.2,1.2,2.7,1.8,4.3,1.8s3.1-0.6,4.3-1.8l3.6-3.6c0.4-0.4,0.4-1,0-1.4l-2.9-2.9l3-3c0.4,0.2,0.8,0.3,1.3,0.3
	c0.8,0,1.6-0.3,2.1-0.9l6-6c0.4,0.1,0.7,0.2,1.1,0.2c1,0,2-0.4,2.7-1.1l0.2-0.2C30,9.2,30,8.6,29.6,8.2z M25.5,8.4l-1.8-1.8
	c-0.3-0.3-0.5-0.8-0.5-1.3c0-0.2,0-0.4,0.1-0.6l4.1,4.1C26.8,9,26,8.9,25.5,8.4z"/>
</svg>