<?xml version="1.0" encoding="utf-8"?>
<!-- Uploaded to: SVG Repo, www.svgrepo.com, Generator: SVG Repo Mixer Tools -->
<svg fill="#741a89" width="800px" height="800px" viewBox="0.5 0 31 31" version="1.1" xmlns="http://www.w3.org/2000/svg">
<title>shovel</title>
<path d="M25.825 12.451h-0c-0.871 1.029-3.369 2.126-6.304 3.046-0.108-1.116-0.256-2.065-0.399-2.59-0.375-0.277-1.028-0.336-1.778-0.256l-3.18-11.678-3.316 0 3.414 12.561c-0.738 0.34-1.313 0.723-1.503 1.057 0.14 0.516 0.481 1.386 0.94 2.382-3.087 0.609-5.838 0.867-6.968 0.508 1.722 6.343 4.469 10.965 7.507 13.483h10.021c2.948-3.281 3.881-9.988 1.567-18.512z"></path>
</svg>