<?xml version="1.0" encoding="utf-8"?>
<svg viewBox="25.2851 32.8057 443.8299 448.08" width="443.8299" height="448.08" xmlns="http://www.w3.org/2000/svg">
  <g transform="matrix(5.08378791809082, 0, 0, 5.08378791809082, -4.312665939331055, -14.275249481201172)" style="">
    <path fill="#741a89" d="M 49.474 9.261 C 25.419 9.261 5.822 25.143 5.822 44.832 C 5.822 45.297 6.008 45.761 6.379 46.132 L 34.892 76.503 C 35.542 75.389 36.471 74.46 37.585 73.81 L 10.187 44.461 C 10.652 42.51 15.017 39.91 21.89 39.91 C 29.134 39.91 33.127 42.603 33.777 44.739 L 42.415 72.603 L 46.502 72.603 L 38.05 45.297 C 37.864 44.832 37.864 44.275 38.05 43.81 C 39.164 41.953 43.344 39.91 49.566 39.91 C 55.604 39.91 59.69 41.953 60.898 43.718 C 61.176 44.182 61.176 44.832 61.083 45.297 L 52.631 72.603 L 56.625 72.603 L 65.263 44.739 C 65.913 42.324 69.907 39.91 77.243 39.91 C 84.116 39.91 88.481 42.51 88.946 44.461 L 61.362 73.81 C 62.476 74.46 63.405 75.389 64.055 76.503 L 92.568 46.132 C 92.939 45.761 93.125 45.297 93.125 44.832 C 93.032 25.143 73.528 9.261 49.474 9.261 Z" style=""/>
    <path fill="#741a89" d="M 57.275 76.503 L 41.672 76.503 C 39.443 76.503 37.678 78.267 37.678 80.496 L 37.678 93.406 C 37.678 95.635 39.443 97.4 41.672 97.4 L 57.368 97.4 C 59.597 97.4 61.362 95.635 61.362 93.406 L 61.362 80.589 C 61.362 78.36 59.504 76.503 57.275 76.503 Z" style=""/>
  </g>
</svg>