<svg viewBox="-6.298 -1.646 95 95" width="90" height="90" xmlns="http://www.w3.org/2000/svg" fill="#741a89">
  <path d="M 81.302 50.393 C 81.302 46.633 80.315 42.962 78.441 39.729 C 78.45 39.486 78.455 39.242 78.455 38.999 C 78.455 31.613 74.369 25.035 67.899 21.749 C 67.971 21.175 68.012 20.595 68.012 20.012 C 68.012 15.089 65.43 10.641 61.217 8.197 C 59.191 3.647 54.629 0.646 49.594 0.646 C 45.861 0.646 42.919 2.172 41.05 4.889 C 39.181 2.172 36.239 0.646 32.506 0.646 C 27.471 0.646 22.909 3.647 20.883 8.197 C 16.67 10.642 14.089 15.089 14.089 20.012 C 14.089 20.595 14.13 21.175 14.202 21.749 C 7.733 25.035 3.646 31.613 3.646 38.999 C 3.646 39.242 3.65 39.486 3.66 39.729 C 1.785 42.961 0.798 46.632 0.798 50.392 C 0.798 55.526 2.614 60.393 5.932 64.248 C 5.677 65.301 5.544 66.383 5.544 67.48 C 5.544 72.407 8.214 76.93 12.436 79.344 C 13.786 85.871 20.531 90.646 28.709 90.646 C 34.147 90.646 38.545 88.402 41.05 84.72 C 43.555 88.402 47.954 90.646 53.392 90.646 C 61.569 90.646 68.314 85.871 69.664 79.346 C 73.886 76.932 76.556 72.408 76.556 67.482 C 76.556 66.384 76.424 65.302 76.168 64.25 C 79.487 60.394 81.302 55.527 81.302 50.393 Z M 41.308 77.229 C 41.308 82.766 34.822 86.089 28.709 86.089 C 22.475 86.089 17.234 82.379 16.779 77.643 C 16.775 77.606 16.769 77.569 16.763 77.531 C 16.962 73.16 14.567 68.635 13.334 74.439 C 11.32 72.733 10.102 70.199 10.102 67.481 C 10.102 66.457 10.272 65.454 10.603 64.499 C 10.705 64.241 10.762 63.96 10.762 63.666 C 10.762 63.031 10.502 62.457 10.082 62.044 C 7.034 58.908 5.355 54.773 5.355 50.393 C 5.355 47.241 6.236 44.171 7.904 41.514 L 7.902 41.513 C 8.123 41.162 8.253 40.748 8.253 40.303 C 8.253 40.246 8.249 40.189 8.244 40.133 L 8.245 40.133 C 8.217 39.759 8.203 39.378 8.203 39 C 8.203 33.279 11.408 28.191 16.466 25.712 C 18.035 28.004 20.036 24.735 18.995 22.504 C 18.981 22.452 18.967 22.401 18.95 22.351 C 18.75 21.594 18.646 20.81 18.646 20.017 C 18.646 16.531 20.587 13.401 23.711 11.85 L 23.708 11.845 C 24.226 11.585 24.63 11.133 24.829 10.582 C 25.996 7.367 29.081 5.207 32.506 5.207 C 37.958 5.207 41.815 7.532 41.815 10.582 L 41.308 77.229 Z M 72.019 62.044 C 71.599 62.457 71.339 63.031 71.339 63.666 C 71.339 63.96 71.396 64.241 71.498 64.499 C 71.828 65.454 71.999 66.457 71.999 67.481 C 71.999 70.199 71.287 73.747 69.274 75.453 C 68.042 69.649 65.139 73.16 65.337 77.531 C 65.332 77.569 65.325 77.606 65.321 77.643 C 64.866 82.379 59.626 86.089 53.391 86.089 C 47.278 86.089 41.292 82.971 41.292 77.434 L 41.806 10.579 C 41.806 7.53 44.142 5.202 49.594 5.202 C 53.019 5.202 56.104 7.362 57.271 10.577 L 57.272 10.577 C 57.47 11.128 57.875 11.579 58.393 11.84 L 58.39 11.846 C 61.514 13.397 63.454 16.527 63.454 20.013 C 63.454 20.805 63.35 21.589 63.151 22.346 C 63.133 22.397 63.118 22.449 63.104 22.501 C 62.063 24.731 64.065 28.001 65.633 25.709 C 70.691 28.188 73.896 33.276 73.896 38.998 C 73.896 39.376 73.881 39.758 73.854 40.131 C 73.85 40.187 73.846 40.244 73.846 40.301 C 73.846 40.746 73.975 41.16 74.196 41.511 L 74.195 41.512 C 75.863 44.169 76.744 47.239 76.744 50.391 C 76.745 54.773 75.067 58.909 72.019 62.044 Z" transform="matrix(1, 0, 0, 1, 0, 1.7763568394002505e-15)"/>
</svg>