<svg viewBox="-6.298 -1.646 95 95" width="90" height="90" xmlns="http://www.w3.org/2000/svg" fill="#741a89">
  <path d="M 87.06 50.899 C 87.06 47.057 85.931 43.307 83.789 40.004 C 83.8 39.755 83.805 39.506 83.805 39.258 C 83.805 31.71 79.135 24.989 71.739 21.633 C 71.822 21.045 71.869 20.453 71.869 19.857 C 71.869 14.828 68.917 10.282 64.102 7.786 C 61.786 3.136 56.571 0.071 50.816 0.071 C 46.549 0.071 43.186 1.629 41.05 4.406 C 38.914 1.629 35.551 0.071 31.284 0.071 C 25.529 0.071 20.314 3.136 17.998 7.786 C 13.183 10.283 10.233 14.828 10.233 19.857 C 10.233 20.453 10.28 21.045 10.362 21.633 C 2.967 24.989 -1.704 31.71 -1.704 39.258 C -1.704 39.506 -1.7 39.755 -1.688 40.004 C -3.831 43.306 -4.96 47.056 -4.96 50.898 C -4.96 56.144 -2.884 61.117 0.909 65.056 C 0.617 66.132 0.465 67.237 0.465 68.358 C 0.465 73.392 3.517 78.013 8.343 80.48 C 9.886 87.15 17.596 92.028 26.944 92.028 C 33.16 92.028 38.187 89.734 41.05 85.973 C 43.913 89.734 48.942 92.028 55.157 92.028 C 64.504 92.028 72.214 87.15 73.757 80.482 C 78.583 78.015 81.635 73.393 81.635 68.36 C 81.635 67.238 81.484 66.133 81.191 65.058 C 84.985 61.118 87.06 56.145 87.06 50.899 Z" style="" transform="matrix(0.9999999999999999, 0, 0, 0.9999999999999999, 0, 0)"/>
</svg>