<svg xmlns="http://www.w3.org/2000/svg" viewBox="0 0 24 24" x="0px" y="0px" fill="#741a89">
<path d="M7.58,20.27l3.53,2.08a1.77,1.77,0,0,0,1.78,0l3.53-2.08a10.78,10.78,0,0,0,5.26-8.37l.5-6A1.74,1.74,0,0,0,21,4.05a6.15,6.15,0,0,1-1.54-.67,7.3,7.3,0,0,1-1.57-1.47,1.7,1.7,0,0,0-1.36-.66h-9a1.7,1.7,0,0,0-1.36.66A7.3,7.3,0,0,1,4.57,3.38,6.15,6.15,0,0,1,3,4.05,1.74,1.74,0,0,0,1.82,5.86l.5,6A10.78,10.78,0,0,0,7.58,20.27ZM3.49,5.48a7.54,7.54,0,0,0,1.94-.86A8.91,8.91,0,0,0,7.32,2.83a.22.22,0,0,1,.18-.08h9a.22.22,0,0,1,.18.08,8.91,8.91,0,0,0,1.89,1.79,7.54,7.54,0,0,0,1.94.86.25.25,0,0,1,.18.26l-.51,6A9.25,9.25,0,0,1,15.65,19l-3.52,2.08a.3.3,0,0,1-.26,0L8.35,19a9.25,9.25,0,0,1-4.53-7.21l-.51-6A.25.25,0,0,1,3.49,5.48Z"/>
</svg>