<svg xmlns="http://www.w3.org/2000/svg" viewBox="0 0 24 24" x="0px" y="0px" fill="#741a89">
<path d="M 6.886 21.045 L 10.935 23.317 C 11.567 23.667 12.345 23.667 12.977 23.317 L 17.027 21.045 C 20.472 19.106 22.721 15.697 23.06 11.898 L 23.633 5.341 C 23.74 4.448 23.175 3.604 22.28 3.32 C 21.658 3.155 21.064 2.908 20.513 2.589 C 19.833 2.141 19.225 1.6 18.713 0.983 C 18.339 0.522 17.761 0.256 17.151 0.261 L 6.829 0.261 C 6.219 0.256 5.642 0.522 5.269 0.983 C 4.744 1.602 4.126 2.143 3.434 2.589 C 2.872 2.91 2.266 3.158 1.633 3.32 C 0.754 3.6 0.195 4.42 0.28 5.298 L 0.852 11.853 C 1.176 15.67 3.427 19.095 6.886 21.045 Z" style=""/>
</svg>

