<svg viewBox="2.1514 -0.8192 329.9632 417.8846" width="329.9632" height="417.8846" xmlns="http://www.w3.org/2000/svg">
  <path fill="#741a89" d="M4214 5841 c-20 -12 -42 -42 -63 -87 -19 -38 -176 -368 -351 -734 -174 -366 -337 -705 -360 -753 -50 -102 -125 -186 -207 -230 -29 -15 -119 -53 -200 -83 -168 -63 -216 -91 -289 -166 -69 -71 -98 -121 -136 -231 -29 -83 -32 -104 -32 -212 -1 -132 10 -179 68 -290 38 -74 190 -229 261 -267 28 -15 165 -70 305 -123 292 -111 322 -126 407 -190 106 -79 208 -199 348 -410 158 -237 211 -299 297 -346 l63 -34 710 -3 c699 -2 711 -2 743 18 40 25 77 99 68 140 -10 53 -49 121 -98 175 -87 96 -162 126 -365 150 -240 27 -291 62 -480 325 -256 359 -423 748 -423 990 0 214 58 389 205 619 138 216 502 726 973 1363 115 156 213 293 216 305 8 26 -16 78 -39 87 -9 3 -371 6 -803 6 -751 0 -788 -1 -818 -19z" transform="matrix(0.10000000149011612, 0, 0, -0.10000000149011612, -255.44264221191406, 585.1807861328125)"/>
</svg>