<?xml version="1.0" encoding="utf-8"?><!-- Uploaded to: SVG Repo, www.svgrepo.com, Generator: SVG Repo Mixer Tools -->
<svg width="800px" height="800px" viewBox="0 0 24 24" fill="none" xmlns="http://www.w3.org/2000/svg">
<path d="M22.1117 8.44803C22.3591 8.94125 22.9594 9.14102 23.4532 8.89421C23.9356 8.65309 24.1402 8.02744 23.8977 7.54695C23.6741 7.11426 23.3914 6.70747 23.071 6.34142C22.5811 5.7817 21.702 5 20.5052 5C19.9116 5 19.3769 5.19664 18.9322 5.41441C18.4939 5.629 18.0829 5.89296 17.6679 6.14828C16.837 6.65943 16.1863 6.99989 15.504 6.99989C15.1257 6.99989 15.0418 6.84099 14.88 6.51613C14.7657 6.28618 14.5615 5.87529 14.1857 5.55321C13.7452 5.17575 13.1829 5 12.5032 5C11.3496 5 10.378 5.54715 9.44771 6.16789C8.66525 6.68937 8.15646 6.99989 7.50192 6.99989C7.18359 6.99989 7.05283 6.92551 6.98839 6.87866C6.84224 6.7724 6.74392 6.60815 6.65082 6.45263C6.46741 6.14625 6.2736 5.83985 6.01438 5.59108C5.63853 5.23037 5.14237 5 4.50115 5C3.91895 5 3.35945 5.18928 2.89526 5.40766C2.42058 5.63097 1.97406 5.91904 1.59974 6.1912C1.13995 6.52548 0.696827 6.89191 0.292968 7.29277C-0.097656 7.68327 -0.097656 8.3164 0.292968 8.7069C0.683445 9.09726 1.31665 9.0972 1.70731 8.70714C2.03796 8.38041 2.40082 8.08164 2.77638 7.80858C3.08973 7.58076 3.42466 7.36887 3.74707 7.2172C4.31167 6.95158 4.63675 7.00212 4.96577 7.52986C5.13009 7.79268 5.38684 8.18711 5.81175 8.49604C6.26307 8.82418 6.81999 8.99978 7.50192 8.99978C8.80805 8.99978 9.78047 8.35057 10.4929 7.87491C11.0979 7.47125 11.7439 6.99989 12.5032 6.99989C12.8604 6.99989 12.9534 7.13621 13.1089 7.44708C13.2934 7.81747 13.5031 8.17373 13.8215 8.44657C14.262 8.82403 14.8243 8.99978 15.504 8.99978C16.8221 8.99978 17.9219 8.34029 18.7164 7.8515C19.0762 7.62949 19.4319 7.39659 19.8121 7.21044C20.1332 7.05324 20.3486 6.99989 20.5052 6.99989C20.8089 6.99989 21.1801 7.21813 21.5654 7.65836C21.7756 7.89842 21.9631 8.16516 22.1117 8.44803Z" fill="#741a89"/>
<path d="M23.4532 13.8942C22.9594 14.141 22.3591 13.9412 22.1117 13.448C21.9631 13.1652 21.7756 12.8984 21.5654 12.6584C21.1801 12.2181 20.8089 11.9999 20.5052 11.9999C20.3486 11.9999 20.1332 12.0532 19.8121 12.2104C19.432 12.3966 19.0762 12.6295 18.7164 12.8515C17.9219 13.3403 16.8221 13.9998 15.504 13.9998C14.8243 13.9998 14.262 13.824 13.8215 13.4466C13.5031 13.1737 13.2934 12.8175 13.1089 12.4471C12.9534 12.1362 12.8604 11.9999 12.5032 11.9999C11.7439 11.9999 11.0979 12.4713 10.4929 12.8749C9.78047 13.3506 8.80805 13.9998 7.50192 13.9998C6.81999 13.9998 6.26307 13.8242 5.81175 13.496C5.38684 13.1871 5.13009 12.7927 4.96577 12.5299C4.63675 12.0021 4.31167 11.9516 3.74707 12.2172C3.42466 12.3689 3.08973 12.5808 2.77638 12.8086C2.40082 13.0816 2.03796 13.3804 1.70731 13.7071C1.31665 14.0972 0.683445 14.0973 0.292968 13.7069C-0.097656 13.3164 -0.097656 12.6833 0.292968 12.2928C0.696827 11.8919 1.13995 11.5255 1.59974 11.1912C1.97406 10.919 2.42058 10.631 2.89526 10.4077C3.35945 10.1893 3.91895 10 4.50115 10C5.14237 10 5.63853 10.2304 6.01438 10.5911C6.2736 10.8398 6.46741 11.1462 6.65082 11.4526C6.74391 11.6081 6.84224 11.7724 6.98839 11.8787C7.05283 11.9255 7.18359 11.9999 7.50192 11.9999C8.15646 11.9999 8.66525 11.6894 9.44771 11.1679C10.378 10.5471 11.3496 10 12.5032 10C13.1829 10 13.7452 10.1758 14.1857 10.5532C14.5615 10.8753 14.7657 11.2862 14.88 11.5161C15.0418 11.841 15.1257 11.9999 15.504 11.9999C16.1863 11.9999 16.837 11.6594 17.6679 11.1483C18.083 10.893 18.4939 10.629 18.9322 10.4144C19.3769 10.1966 19.9116 10 20.5052 10C21.702 10 22.5811 10.7817 23.071 11.3414C23.3914 11.7075 23.6741 12.1143 23.8977 12.547C24.1402 13.0274 23.9356 13.6531 23.4532 13.8942Z" fill="#741a89"/>
<path d="M23.4532 18.8942C22.9594 19.141 22.3591 18.9412 22.1117 18.448C21.9631 18.1652 21.7756 17.8984 21.5654 17.6584C21.1801 17.2181 20.8089 16.9999 20.5052 16.9999C20.3486 16.9999 20.1332 17.0532 19.8121 17.2104C19.4319 17.3966 19.0762 17.6295 18.7164 17.8515C17.9219 18.3403 16.8221 18.9998 15.504 18.9998C14.8243 18.9998 14.262 18.824 13.8215 18.4466C13.5031 18.1737 13.2934 17.8175 13.1089 17.4471C12.9534 17.1362 12.8604 16.9999 12.5032 16.9999C11.7439 16.9999 11.0979 17.4713 10.4929 17.8749C9.78047 18.3506 8.80805 18.9998 7.50192 18.9998C6.81999 18.9998 6.26307 18.8242 5.81175 18.496C5.38684 18.1871 5.13009 17.7927 4.96577 17.5299C4.63675 17.0021 4.31167 16.9516 3.74707 17.2172C3.42466 17.3689 3.08973 17.5808 2.77638 17.8086C2.40082 18.0816 2.03796 18.3804 1.70731 18.7071C1.31665 19.0972 0.683445 19.0973 0.292968 18.7069C-0.097656 18.3164 -0.097656 17.6833 0.292968 17.2928C0.696827 16.8919 1.13995 16.5255 1.59974 16.1912C1.97406 15.919 2.42058 15.631 2.89526 15.4077C3.35945 15.1893 3.91895 15 4.50115 15C5.14237 15 5.63853 15.2304 6.01438 15.5911C6.2736 15.8398 6.46741 16.1462 6.65082 16.4526C6.74392 16.6081 6.84224 16.7724 6.98839 16.8787C7.05283 16.9255 7.18359 16.9999 7.50192 16.9999C8.15646 16.9999 8.66525 16.6894 9.44771 16.1679C10.378 15.5471 11.3496 15 12.5032 15C13.1829 15 13.7452 15.1758 14.1857 15.5532C14.5615 15.8753 14.7657 16.2862 14.88 16.5161C15.0418 16.841 15.1257 16.9999 15.504 16.9999C16.1863 16.9999 16.837 16.6594 17.6679 16.1483C18.083 15.893 18.4939 15.629 18.9322 15.4144C19.3769 15.1966 19.9116 15 20.5052 15C21.702 15 22.5811 15.7817 23.071 16.3414C23.3914 16.7075 23.6741 17.1143 23.8977 17.547C24.1402 18.0274 23.9356 18.6531 23.4532 18.8942Z" fill="#741a89"/>
</svg>