<svg xmlns="http://www.w3.org/2000/svg" viewBox="0 0 60 60" x="0px" y="0px"><path fill="#ffffff" d="M5,58H8a1,1,0,0,0,1-1V53H4v4A1,1,0,0,0,5,58Z"/><path fill="#ffffff" d="M7.423,31.924l1.25-2.5-6.1-3.255-.557,4.019a1.062,1.062,0,0,0,.9,1.2Z"/><path fill="#ffffff" d="M31.186,19.745l9.235-4.137.786-3.335A35.136,35.136,0,0,1,30,14a35.136,35.136,0,0,1-11.207-1.727l.786,3.335,9.24,4.139A2.893,2.893,0,0,0,31.186,19.745Z"/><path fill="#ffffff" d="M28.589,45.381,17.553,39.5a48.437,48.437,0,0,1,1.4,9.425,2,2,0,0,0,1.357,1.789l8.426,2.811a4.03,4.03,0,0,0,2.532,0l8.426-2.811a2,2,0,0,0,1.357-1.791,48.5,48.5,0,0,1,1.4-9.423L31.411,45.381a3,3,0,0,1-2.822,0Z"/><path fill="#ffffff" d="M14.482,30.719a46.968,46.968,0,0,1,2.333,6.117L29.53,43.615a.991.991,0,0,0,.94,0l12.715-6.779a46.968,46.968,0,0,1,2.333-6.117l-.405-2.835-5.952-.85-7.176,3.5a4.5,4.5,0,0,1-3.97,0l-7.176-3.5-5.952.85Z"/><path fill="#ffffff" d="M9.121,51,9.7,46.347A25.593,25.593,0,0,0,4,45.119V51Z"/><path fill="#ffffff" d="M2.56,23.9l7.458,3.979,2.6-1.3A30.156,30.156,0,0,0,4.285,17.52L2.07,22.571A1.072,1.072,0,0,0,2.56,23.9Z"/><path fill="#ffffff" d="M56,45.119a25.542,25.542,0,0,0-5.7,1.229L50.879,51H56Z"/><path fill="#ffffff" d="M56,57V53H51v4a1,1,0,0,0,1,1h3A1,1,0,0,0,56,57Z"/><path fill="#ffffff" d="M57.107,31.387a1.057,1.057,0,0,0,.878-1.2l-.557-4.021-6.1,3.255,1.25,2.5Z"/><path fill="#ffffff" d="M3.882,14.48a1.073,1.073,0,0,0,.491.7,31.37,31.37,0,0,1,10.178,10.73l5.225-.746L14.511,2.829a1.089,1.089,0,0,0-1.306-.8,1.068,1.068,0,0,0-.787,1.276l.561,2.47a1,1,0,0,1-.66,1.17C8.51,8.219,5.5,11.742,4.05,13.729A.951.951,0,0,0,3.882,14.48Z"/><path fill="#ffffff" d="M28.892,28.741a2.508,2.508,0,0,0,2.216,0l7.026-3.431,1.709-7.25L32,21.573a4.891,4.891,0,0,1-3.993,0l-7.849-3.516,1.709,7.251Z"/><path fill="#ffffff" d="M55.716,17.52a30.149,30.149,0,0,0-8.332,9.055l2.6,1.3,7.473-3.986a1.076,1.076,0,0,0,.461-1.35Z"/><path fill="#ffffff" d="M47.681,6.948a1,1,0,0,1-.66-1.17L47.583,3.3A1.067,1.067,0,0,0,46.8,2.032a1.087,1.087,0,0,0-1.306.8L40.224,25.165l5.225.746a31.37,31.37,0,0,1,10.178-10.73,1.073,1.073,0,0,0,.491-.7.951.951,0,0,0-.168-.751C54.5,11.742,51.49,8.219,47.681,6.948Z"/><path fill="#ffffff" d="M2.054,42.873a.234.234,0,0,0,.174.088,28.126,28.126,0,0,1,9.394,2.011.267.267,0,0,0,.259-.016.208.208,0,0,0,.1-.185l.016-8.3a36.5,36.5,0,0,1,.364-5.067l.38-2.659-1.994,1L8.9,33.447A1,1,0,0,1,8,34a.945.945,0,0,1-.118-.007l-4.444-.527L2,42.694A.225.225,0,0,0,2.054,42.873Z"/><path fill="#ffffff" d="M57.946,42.873a.226.226,0,0,0,.051-.18l-1.438-9.227-4.444.527A.945.945,0,0,1,52,34a1,1,0,0,1-.894-.553l-1.851-3.7-1.994-1,.38,2.659A36.5,36.5,0,0,1,48,36.474l.016,8.3a.209.209,0,0,0,.1.187.266.266,0,0,0,.262.015,28.087,28.087,0,0,1,9.387-2.009A.24.24,0,0,0,57.946,42.873Z"/></svg>