<?xml version="1.0" standalone="no"?>
<!DOCTYPE svg PUBLIC "-//W3C//DTD SVG 20010904//EN"
 "http://www.w3.org/TR/2001/REC-SVG-20010904/DTD/svg10.dtd">
<svg version="1.0" xmlns="http://www.w3.org/2000/svg"
 width="1280.000000pt" height="1258.000000pt" viewBox="-100 -100 1480.000000 1458.000000"
 preserveAspectRatio="xMidYMid meet">
<metadata>
Created by potrace 1.15, written by Peter Selinger 2001-2017
</metadata>
<g transform="translate(0.000000,1258.000000) scale(0.100000,-0.100000)"
fill="#ffffff" stroke="none">
<path d="M6285 12503 c-135 -172 -425 -452 -653 -630 -601 -469 -1260 -748
-2002 -845 -219 -29 -658 -31 -882 -5 -400 47 -745 132 -1150 282 -111 41
-205 75 -209 75 -3 0 -14 -30 -24 -67 -86 -325 -240 -583 -486 -817 -185 -176
-368 -280 -679 -387 l-195 -66 -3 -45 -3 -45 113 -43 c280 -107 478 -240 703
-471 407 -419 643 -974 721 -1694 21 -193 24 -663 5 -860 -60 -643 -187 -1224
-420 -1925 -228 -684 -446 -1204 -867 -2060 -228 -465 -246 -516 -248 -695 -1
-132 10 -194 55 -293 129 -288 479 -514 1048 -679 547 -157 1027 -234 2611
-418 1328 -154 1889 -266 2265 -450 183 -89 259 -163 310 -296 l27 -69 83 0
84 0 21 58 c28 78 38 96 78 143 138 161 506 302 1077 412 367 71 667 113 1675
232 1005 118 1377 171 1804 256 495 99 901 230 1149 370 419 238 581 561 472
944 -18 63 -85 211 -220 485 -348 708 -544 1158 -743 1705 -312 858 -469 1517
-543 2280 -19 187 -15 670 5 860 78 721 314 1275 721 1694 225 231 423 364
703 471 l113 43 -3 45 -3 45 -195 66 c-342 117 -537 235 -740 447 -191 199
-317 412 -402 678 -23 72 -44 135 -48 139 -4 4 -83 -21 -176 -57 -404 -153
-765 -244 -1164 -292 -203 -25 -650 -25 -845 -1 -728 92 -1362 346 -1961 788
-246 181 -595 508 -739 691 l-60 77 -60 0 -60 1 -60 -77z"/>
</g>
</svg>
