<svg xmlns:inkscape="http://www.inkscape.org/namespaces/inkscape" xmlns:sodipodi="http://sodipodi.sourceforge.net/DTD/sodipodi-0.dtd" xmlns="http://www.w3.org/2000/svg" xmlns:svg="http://www.w3.org/2000/svg" xmlns:rdf="http://www.w3.org/1999/02/22-rdf-syntax-ns#" xmlns:cc="http://creativecommons.org/ns#" xmlns:dc="http://purl.org/dc/elements/1.1/" viewBox="2 3 10 12" version="1.1" x="0px" y="0px"><g><path style="color:#000000;" d="m 14.415011,1.2384572 a 0.26460127,0.26460127 0 0 0 -0.26357,0.264085 v 0.837731 a 0.26460127,0.26460127 0 0 0 0.26357,0.263567 0.26460127,0.26460127 0 0 0 0.26564,-0.263567 v -0.837731 a 0.26460127,0.26460127 0 0 0 -0.26564,-0.264085 z m -5.2801403,1.096647 c -0.10491,0 -0.18353,0.04931 -0.23204,0.09251 -0.0485,0.04321 -0.0786,0.08704 -0.10646,0.1323 -0.0558,0.09051 -0.0986,0.192199 -0.14212,0.31008 -0.0871,0.235761 -0.16986,0.532476 -0.25013,0.83463 -0.0803,0.302154 -0.15785,0.609204 -0.22584,0.846517 -0.034,0.118657 -0.0655,0.220249 -0.092,0.290958 -0.0104,0.02769 -0.0228,0.04933 -0.032,0.06563 -0.0165,0.0095 -0.0384,0.02178 -0.0656,0.03204 -0.0707,0.02651 -0.1723,0.05799 -0.29095,0.09199 -0.23731,0.068 -0.54283,0.145564 -0.84497,0.225841 -0.30214,0.08028 -0.60044,0.163061 -0.83618,0.250131 -0.11788,0.04353 -0.21957,0.0863 -0.31008,0.14212 -0.0452,0.02791 -0.0875,0.05796 -0.13075,0.10646 -0.0432,0.0485 -0.0935,0.127117 -0.0935,0.232043 0,0.104926 0.0503,0.183539 0.0935,0.232043 0.0432,0.0485 0.0855,0.07855 0.13075,0.10646 0.0905,0.05582 0.1922,0.0991 0.31008,0.142637 0.23574,0.08707 0.53404,0.169335 0.83618,0.249614 0.30214,0.08028 0.60766,0.157845 0.84497,0.225841 0.11865,0.034 0.22024,0.066 0.29095,0.09251 0.0274,0.01029 0.0496,0.02174 0.0661,0.03101 0.009,0.01654 0.0212,0.03842 0.0315,0.06615 0.0265,0.07071 0.058,0.172301 0.092,0.290958 0.068,0.237314 0.14556,0.543329 0.22584,0.845483 0.0803,0.302154 0.16306,0.59887 0.25013,0.834631 0.0436,0.11788 0.0863,0.219569 0.14212,0.310079 0.0279,0.04525 0.058,0.0891 0.10646,0.132301 0.0485,0.04321 0.12713,0.09354 0.23204,0.09354 0.10492,0 0.18354,-0.05034 0.23204,-0.09354 0.0485,-0.04321 0.0786,-0.08705 0.10647,-0.132301 0.0558,-0.09051 0.0991,-0.192199 0.14263,-0.310079 0.0871,-0.235761 0.16934,-0.532477 0.24962,-0.834631 0.0803,-0.302154 0.1578403,-0.608169 0.2258403,-0.845483 0.034,-0.118657 0.066,-0.220249 0.0925,-0.290958 0.0104,-0.02756 0.0223,-0.0491 0.0315,-0.06563 0.0165,-0.0093 0.0381,-0.02118 0.0656,-0.03153 0.0707,-0.02651 0.1723,-0.05851 0.29095,-0.09251 0.23731,-0.068 0.54283,-0.145563 0.84497,-0.225841 0.30214,-0.08028 0.60043,-0.162544 0.83618,-0.249614 0.11787,-0.04353 0.21957,-0.08682 0.31008,-0.142637 0.0452,-0.02791 0.0881,-0.05796 0.13127,-0.10646 0.0432,-0.0485 0.0935,-0.127117 0.0935,-0.232043 0,-0.104926 -0.0504,-0.183539 -0.0935,-0.232043 -0.0432,-0.0485 -0.086,-0.07855 -0.13127,-0.10646 -0.0905,-0.05582 -0.19221,-0.09858 -0.31008,-0.14212 -0.23575,-0.08707 -0.53404,-0.169853 -0.83618,-0.250131 -0.30214,-0.08028 -0.60766,-0.157846 -0.84497,-0.225841 -0.11865,-0.034 -0.22025,-0.06548 -0.29095,-0.09199 -0.0275,-0.01031 -0.0491,-0.02253 -0.0656,-0.03204 -0.009,-0.0163 -0.0212,-0.03795 -0.0315,-0.06563 -0.0265,-0.07071 -0.0585,-0.172301 -0.0925,-0.290958 -0.068,-0.237313 -0.1455703,-0.544363 -0.2258403,-0.846517 -0.0803,-0.302154 -0.16255,-0.598869 -0.24962,-0.83463 -0.0435,-0.117881 -0.0868,-0.219569 -0.14263,-0.31008 -0.0279,-0.04525 -0.0579,-0.0891 -0.10647,-0.1323 -0.0485,-0.04321 -0.12712,-0.09251 -0.23204,-0.09251 z m -6.05275,0.270803 a 0.26460127,0.26460127 0 0 0 -0.26356,0.263568 v 0.838248 a 0.26460127,0.26460127 0 0 0 0.26356,0.265634 0.26460127,0.26460127 0 0 0 0.26564,-0.265634 v -0.838248 a 0.26460127,0.26460127 0 0 0 -0.26564,-0.263568 z m 9.8739703,0.09199 a 0.26460127,0.26460127 0 0 0 -0.26564,0.265634 0.26460127,0.26460127 0 0 0 0.26564,0.263568 h 0.83772 a 0.26460127,0.26460127 0 0 0 0.26358,-0.263568 0.26460127,0.26460127 0 0 0 -0.26358,-0.265634 z m 2.08218,0 a 0.26460127,0.26460127 0 0 0 -0.26357,0.265634 0.26460127,0.26460127 0 0 0 0.26357,0.263568 h 0.83773 a 0.26460127,0.26460127 0 0 0 0.26357,-0.263568 0.26460127,0.26460127 0 0 0 -0.26357,-0.265634 z m -0.62326,0.622742 a 0.26460127,0.26460127 0 0 0 -0.26357,0.264085 v 0.837731 a 0.26460127,0.26460127 0 0 0 0.26357,0.265634 0.26460127,0.26460127 0 0 0 0.26564,-0.265634 v -0.837731 a 0.26460127,0.26460127 0 0 0 -0.26564,-0.264085 z M 1.6232007,4.0648302 a 0.26460127,0.26460127 0 0 0 -0.26564,0.265635 0.26460127,0.26460127 0 0 0 0.26564,0.264084 h 0.83773 a 0.26460127,0.26460127 0 0 0 0.26409,-0.264084 0.26460127,0.26460127 0 0 0 -0.26409,-0.265635 z m 2.08218,0 a 0.26460127,0.26460127 0 0 0 -0.26563,0.265635 0.26460127,0.26460127 0 0 0 0.26563,0.264084 h 0.83774 a 0.26460127,0.26460127 0 0 0 0.26408,-0.264084 0.26460127,0.26460127 0 0 0 -0.26408,-0.265635 z m -0.62326,0.623259 a 0.26460127,0.26460127 0 0 0 -0.26356,0.263568 v 0.838248 a 0.26460127,0.26460127 0 0 0 0.26356,0.265635 0.26460127,0.26460127 0 0 0 0.26564,-0.265635 v -0.838248 a 0.26460127,0.26460127 0 0 0 -0.26564,-0.263568 z m 0.60828,3.344724 c -0.10085,0 -0.17485,0.04687 -0.21913,0.0863 -0.0443,0.03944 -0.071,0.07756 -0.0946,0.115763 -0.0471,0.07641 -0.0812,0.157659 -0.11576,0.251165 -0.0691,0.187012 -0.13286,0.419033 -0.19535,0.654267 -0.0625,0.235236 -0.12283,0.472498 -0.1752,0.655301 -0.0262,0.0914 -0.0502,0.169934 -0.0698,0.2222238 -0.004,0.01019 -0.008,0.01899 -0.0129,0.02739 -0.009,0.0046 -0.0182,0.0094 -0.0289,0.01344 -0.0523,0.0196 -0.12979,0.04461 -0.22119,0.0708 -0.1828,0.05238 -0.42008,0.111663 -0.6553,0.174161 -0.23522,0.0625 -0.46727,0.127317 -0.65427,0.196384 -0.0935,0.03453 -0.17579,0.06812 -0.25219004,0.115246 -0.0382,0.02356 -0.0758,0.05029 -0.11525,0.09457 -0.0394,0.04428 -0.0868,0.118787 -0.0868,0.21964 0,0.100852 0.0474,0.174844 0.0868,0.219122 0.0394,0.04428 0.077,0.06998 0.11525,0.09354 0.0764,0.04712 0.15869004,0.08071 0.25219004,0.115246 0.187,0.06907 0.41905,0.133886 0.65427,0.196384 0.23522,0.0625 0.4725,0.122818 0.6553,0.175195 0.0914,0.02619 0.1689,0.05017 0.22119,0.06977 0.0108,0.004 0.0203,0.0088 0.0289,0.01344 0.005,0.0084 0.009,0.01707 0.0129,0.02739 0.0196,0.05229 0.0436,0.130821 0.0698,0.222223 0.0524,0.182804 0.1127,0.420066 0.1752,0.655302 0.0625,0.235234 0.12628,0.467255 0.19535,0.654267 0.0345,0.09351 0.0686,0.174753 0.11576,0.251164 0.0236,0.03821 0.0503,0.07632 0.0946,0.115763 0.0443,0.03944 0.11828,0.08734 0.21913,0.08734 0.10084,0 0.17484,-0.0479 0.21912,-0.08734 0.0443,-0.03944 0.071,-0.07756 0.0946,-0.115763 0.0471,-0.07641 0.0807,-0.157659 0.11525,-0.251164 0.0691,-0.187012 0.13286,-0.419033 0.19535,-0.654267 0.0625,-0.235236 0.12282,-0.472498 0.17519,-0.655302 0.0262,-0.0914 0.0502,-0.169933 0.0698,-0.222223 0.004,-0.01032 0.008,-0.01898 0.0129,-0.02739 0.009,-0.0046 0.0182,-0.0094 0.0289,-0.01344 0.0523,-0.0196 0.1298,-0.04358 0.22119,-0.06977 0.1828,-0.05238 0.42008,-0.112697 0.65531,-0.175195 0.23522,-0.0625 0.46726,-0.127318 0.65426,-0.196384 0.0935,-0.03453 0.17579,-0.06812 0.2522,-0.115246 0.0382,-0.02356 0.0763,-0.04926 0.11576,-0.09354 0.0394,-0.04428 0.0863,-0.11827 0.0863,-0.219122 0,-0.100853 -0.0469,-0.175362 -0.0863,-0.21964 -0.0394,-0.04428 -0.0776,-0.07101 -0.11576,-0.09457 -0.0764,-0.04712 -0.1587,-0.08071 -0.2522,-0.115246 -0.187,-0.06907 -0.41904,-0.133887 -0.65426,-0.196384 -0.23523,-0.0625 -0.47251,-0.121784 -0.65531,-0.174161 -0.0914,-0.02619 -0.1689,-0.0512 -0.22119,-0.0708 -0.0108,-0.004 -0.0202,-0.0088 -0.0289,-0.01344 -0.005,-0.0084 -0.009,-0.0172 -0.0129,-0.02739 -0.0196,-0.05229 -0.0436,-0.1308218 -0.0698,-0.2222238 -0.0524,-0.182803 -0.11269,-0.420065 -0.17519,-0.655301 -0.0625,-0.235234 -0.12629,-0.467255 -0.19535,-0.654267 -0.0345,-0.09351 -0.0681,-0.174753 -0.11525,-0.251165 -0.0236,-0.03821 -0.0503,-0.07632 -0.0946,-0.115763 -0.0443,-0.03944 -0.11828,-0.0863 -0.21912,-0.0863 z m 9.7297703,0.503362 c -0.097,0 -0.16742,0.04573 -0.20775,0.08166 -0.0403,0.03593 -0.0621,0.06915 -0.0817,0.100775 -0.039,0.06325 -0.0648,0.126144 -0.0909,0.196901 -0.0523,0.141512 -0.0998,0.31198 -0.14574,0.484757 -0.0459,0.172777 -0.0893,0.346628 -0.12713,0.478556 -0.0179,0.06227 -0.0341,0.113025 -0.047,0.1483208 -0.0353,0.0129 -0.0861,0.02867 -0.14832,0.04651 -0.13192,0.0378 -0.30527,0.08175 -0.47804,0.12765 -0.17277,0.0459 -0.34377,0.09347 -0.48528,0.145737 -0.0708,0.02613 -0.13365,0.05143 -0.1969,0.09044 -0.0316,0.01951 -0.0638,0.04183 -0.0997,0.08217 -0.0359,0.04033 -0.0816,0.110701 -0.0816,0.207753 0,0.09705 0.0457,0.167419 0.0816,0.207754 0.036,0.04033 0.0681,0.06215 0.0997,0.08165 0.0632,0.03901 0.12615,0.06482 0.1969,0.09096 0.14151,0.05226 0.31251,0.09932 0.48528,0.145221 0.17277,0.0459 0.34612,0.08985 0.47804,0.127649 0.0623,0.01784 0.11302,0.03362 0.14832,0.04651 0.0129,0.0353 0.0291,0.08629 0.047,0.148838 0.0378,0.131929 0.0812,0.305263 0.12713,0.478039 0.0459,0.172778 0.0935,0.344279 0.14574,0.485791 0.0261,0.07076 0.052,0.133131 0.0909,0.196384 0.0195,0.03162 0.0413,0.06433 0.0817,0.100259 0.0403,0.03593 0.1107,0.08165 0.20775,0.08165 0.097,0 0.16742,-0.04572 0.20775,-0.08165 0.0403,-0.03593 0.0622,-0.06863 0.0817,-0.100259 0.039,-0.06325 0.0648,-0.125628 0.091,-0.196384 0.0523,-0.141512 0.0998,-0.313013 0.14573,-0.485791 0.0459,-0.172776 0.0893,-0.34611 0.12713,-0.478039 0.0179,-0.06255 0.0346,-0.113544 0.0476,-0.148838 0.0353,-0.0129 0.0855,-0.02867 0.1478,-0.04651 0.13192,-0.0378 0.30527,-0.08174 0.47804,-0.127649 0.17277,-0.0459 0.34377,-0.09296 0.48528,-0.145221 0.0708,-0.02613 0.13365,-0.05195 0.1969,-0.09096 0.0316,-0.01951 0.0638,-0.04132 0.0997,-0.08165 0.036,-0.04033 0.0816,-0.110701 0.0816,-0.207754 0,-0.09705 -0.0457,-0.167419 -0.0816,-0.207753 -0.0359,-0.04033 -0.0681,-0.06267 -0.0997,-0.08217 -0.0633,-0.03901 -0.12615,-0.06431 -0.1969,-0.09044 -0.14151,-0.05226 -0.31251,-0.09983 -0.48528,-0.145737 -0.17277,-0.0459 -0.34612,-0.08985 -0.47804,-0.12765 -0.0623,-0.01784 -0.1125,-0.03362 -0.1478,-0.04651 -0.0128,-0.03529 -0.0297,-0.08605 -0.0476,-0.1483208 -0.0378,-0.131928 -0.0812,-0.305779 -0.12713,-0.478556 -0.0459,-0.172777 -0.0935,-0.343245 -0.14573,-0.484757 -0.0261,-0.07076 -0.0519,-0.133647 -0.091,-0.196901 -0.0195,-0.03163 -0.0413,-0.06485 -0.0817,-0.100775 -0.0403,-0.03593 -0.1107,-0.08166 -0.20775,-0.08166 z M 8.0335807,12.245242 a 0.26460127,0.26460127 0 0 0 -0.26564,0.263567 v 0.838248 a 0.26460127,0.26460127 0 0 0 0.26564,0.265635 0.26460127,0.26460127 0 0 0 0.26408,-0.265635 v -0.838248 a 0.26460127,0.26460127 0 0 0 -0.26408,-0.263567 z m -1.461,1.458924 a 0.26460127,0.26460127 0 0 0 -0.26356,0.265634 0.26460127,0.26460127 0 0 0 0.26356,0.264084 h 0.83825 a 0.26460127,0.26460127 0 0 0 0.26357,-0.264084 0.26460127,0.26460127 0 0 0 -0.26357,-0.265634 z m 2.08218,0 a 0.26460127,0.26460127 0 0 0 -0.26356,0.265634 0.26460127,0.26460127 0 0 0 0.26356,0.264084 h 0.83826 a 0.26460127,0.26460127 0 0 0 0.26563,-0.264084 0.26460127,0.26460127 0 0 0 -0.26563,-0.265634 z m -0.62118,0.623259 a 0.26460127,0.26460127 0 0 0 -0.26564,0.263568 v 0.838248 a 0.26460127,0.26460127 0 0 0 0.26564,0.265635 0.26460127,0.26460127 0 0 0 0.26408,-0.265635 v -0.838248 a 0.26460127,0.26460127 0 0 0 -0.26408,-0.263568 z" fill="#ffffff" stroke-width="0.50997" stroke-linecap="round" stroke-linejoin="round"/></g></svg>