<?xml version="1.0" encoding="UTF-8"?>
<svg width="700pt" height="700pt" version="1.1" viewBox="100 10 500 500" xmlns="http://www.w3.org/2000/svg" xmlns:xlink="http://www.w3.org/1999/xlink">
 <g>
  <path fill="#a0c7e7" d="m110.74 363.18 57.871 128.49c0.95312 2.1094 3.1484 3.3672 5.4492 3.1172 2.2969-0.25 4.1758-1.9492 4.6562-4.2109l18.746-85.367c0.5-2.2969-0.55469-4.6523-2.6016-5.8047l-76.562-43.125v-0.003906c-2.0273-1.2031-4.5977-0.9375-6.3359 0.64844-1.7422 1.5898-2.2383 4.1289-1.2227 6.2539z"/>
  <path fill="#a0c7e7" d="m468.27 350h72.789c1.7383 0 3.3945-0.72266 4.5781-1.9961 1.1797-1.2695 1.7812-2.9766 1.6562-4.707l-12.598-174.28c-0.17969-2.3828-1.6992-4.4609-3.9219-5.3438-2.2227-0.88672-4.7539-0.42969-6.5234 1.1797l-100.83 91.625v-0.003906c-2.0625 1.875-2.6328 4.8867-1.4023 7.3828l40.645 82.676c1.0586 2.1289 3.2344 3.4727 5.6094 3.4688z"/>
  <path fill="#a0c7e7" d="m395.94 251.62 56.578-48.344c4.1484-3.543 7.1914-8.207 8.7617-13.43 1.5703-5.2266 1.6055-10.793 0.097656-16.035l-28.438-99.246c-0.77734-2.7266-3.1797-4.668-6.0078-4.8633-2.8242-0.19141-5.4688 1.4062-6.6133 3.9961l-43.125 97.574c-2.2227 5.0469-2.9375 10.625-2.0586 16.066l9.8438 60.242v0.003906c0.40234 2.3789 2.0469 4.3633 4.3086 5.1953 2.2656 0.83594 4.8047 0.39062 6.6523-1.1602z"/>
  <path fill="#a0c7e7" d="m212.94 313.63 7.6562-47.383c0.51172-3.1797 0.70312-6.4023 0.57031-9.625l-6.4766-156.09c-0.10547-2.5-1.9844-4.5625-4.4609-4.9023-2.4766-0.34375-4.8438 1.1367-5.6211 3.5117-18.68 57.848-42.141 125.85-54.316 160.78-1.4844 4.25-0.23828 8.9766 3.1484 11.945l50.98 44.844c1.418 1.2422 3.3984 1.6133 5.1719 0.97266s3.0547-2.1953 3.3477-4.0586z"/>
  <path fill="#a0c7e7" d="m280.71 468.46-41.824-14.164c-1.8164-0.66016-3.8516-0.046875-5 1.5039-1.1523 1.5508-1.1523 3.6719 0 5.2227l39.551 55.582c0.82031 1.168 2.1602 1.8633 3.5859 1.8594h22.402c1.5234 0.019531 2.9492-0.76172 3.7578-2.0547 0.80469-1.293 0.88281-2.9141 0.19922-4.2773l-20.102-41.418c-0.51562-1.0703-1.4453-1.8828-2.5703-2.2539z"/>
  <path fill="#a0c7e7" d="m462.23 374.84-75.566 134.53c-1.0586 1.8789-1.0352 4.1797 0.050782 6.043 1.0898 1.8633 3.0859 3.0078 5.2422 3.0117h17.258c1.7266 0.003907 3.3711-0.73438 4.5195-2.0234l110.66-123.23c0.13672-0.15234 0.26562-0.30859 0.38281-0.47266l8.2695-11.297c1.3477-1.8477 1.5469-4.2969 0.51172-6.3359-1.0312-2.043-3.125-3.3281-5.4141-3.332h-60.625c-2.1953-0.003906-4.2227 1.1875-5.293 3.1055z"/>
  <path fill="#a0c7e7" d="m306.25 468.25 23.352 48.125c0.63281 1.293 1.9492 2.1172 3.3906 2.1211h11.211c1.043 0 2.0391-0.43359 2.7461-1.1992 0.71094-0.76172 1.0703-1.7852 0.99609-2.8242l-8.3359-121.47c-0.10938-1.7305-1.3906-3.1641-3.0977-3.4609-1.707-0.30078-3.3984 0.61328-4.0898 2.2031l-26.469 59.938c-2.332 5.3008-2.2227 11.355 0.29688 16.57z"/>
  <path fill="#a0c7e7" d="m204.9 346.01-49.656-43.617c-1.8516-1.6367-4.5273-1.9453-6.707-0.77344-2.1758 1.1719-3.3906 3.5742-3.0469 6.0234l5.4688 39.527c0.23828 1.8438 1.332 3.4648 2.9531 4.375l41.094 23.133h-0.003906c1.6875 0.95703 3.7344 1.0273 5.4805 0.18359 1.7422-0.83984 2.9688-2.4805 3.2695-4.3945l3.0859-19.031c0.33203-2.0234-0.40234-4.0703-1.9375-5.4258z"/>
  <path fill="#a0c7e7" d="m204.72 473.42-8.4102 38.336h-0.003906c-0.38281 1.6367 0.007812 3.3594 1.0625 4.6719 1.0508 1.3125 2.6484 2.0664 4.332 2.043h35.645c2.0781 0.011719 3.9844-1.1484 4.9336-2.9922 0.94922-1.8477 0.78516-4.0703-0.42578-5.7578l-27.234-38.312c-1.2656-1.7812-3.4648-2.6523-5.6055-2.2148-2.1406 0.43359-3.8242 2.0938-4.293 4.2266z"/>
  <path fill="#a0c7e7" d="m221.35 397.61v0.24219c0 0.085938 0 0.23047-0.054687 0.35156l-4.2422 19.316v-0.003906c-0.75391 3.418 1.1836 6.8516 4.4961 7.9766l56.875 19.262v-0.003906c3.3633 1.1484 7.0469-0.47266 8.4766-3.7266l34.312-77.656h-0.003906c1.1719-2.6523 0.55078-5.75-1.5508-7.7461l-69.836-66.477c-1.8438-1.7617-4.5117-2.3516-6.9258-1.5352-2.418 0.8125-4.1797 2.8984-4.582 5.418z"/>
  <path fill="#a0c7e7" d="m394.93 281.96-34.648 86.758c-0.35156 0.88281-0.5 1.8359-0.4375 2.7891l7.1875 104.76c0.1875 2.7969 2.1914 5.1406 4.9258 5.7539 2.7344 0.61719 5.5508-0.63672 6.918-3.0859l64.848-115.48c1.0195-1.8203 1.082-4.0234 0.16406-5.8945l-37.395-76.047v-0.003907c-0.86328-1.75-2.4883-3.0078-4.3984-3.4023-1.9141-0.39844-3.9023 0.11328-5.3906 1.3789-0.78125 0.66797-1.3906 1.5156-1.7734 2.4727z"/>
  <path fill="#a0c7e7" d="m585.66 407.28-35.414-1.0938h-0.003906c-5.1289-0.16406-10.066 1.9453-13.496 5.7617l-86.504 96.359c-1.6094 1.7969-2.0117 4.3711-1.0273 6.5742 0.98047 2.1992 3.168 3.6172 5.5781 3.6211h21.152c0.80859-0.003906 1.6055-0.16406 2.3516-0.47266l71.914-29.902c7.2383-3.0039 12.953-8.8047 15.848-16.09l23.395-58.965v0.003906c0.51562-1.2812 0.375-2.7344-0.38281-3.8906-0.75781-1.1562-2.0312-1.8672-3.4102-1.9062z"/>
  <path fill="#a0c7e7" d="m347.28 342.76 18.594-46.582c2.293-5.7344 2.9805-11.984 1.9883-18.078l-14.219-87.402c-0.91406-5.6641-3.2578-11.008-6.8008-15.52l-103.24-131.78c-1.3047-1.6445-3.5156-2.2695-5.4844-1.543-1.9727 0.72266-3.2539 2.6289-3.1797 4.7266l7.5039 198.16c0.17969 4.9297 2.2734 9.5938 5.8398 13.004l91.109 86.723c1.1641 1.125 2.8164 1.5938 4.3984 1.25 1.582-0.33984 2.8906-1.4492 3.4883-2.957z"/>
  <path fill="#a0c7e7" d="m362.96 149.66 34.125-77.23v0.003907c0.84375-1.9336 0.25781-4.1914-1.4219-5.4648-1.6797-1.2734-4.0117-1.2305-5.6445 0.10547l-57.453 47.457c-1.9062 1.5742-2.207 4.3789-0.67969 6.3203l23.309 29.781v0.003906c0.98828 1.2617 2.5664 1.9102 4.1602 1.7109 1.5898-0.19922 2.9609-1.2188 3.6055-2.6875z"/>
 </g>
</svg>
