<?xml version="1.0" encoding="UTF-8"?>
<svg width="700pt" height="700pt" xmlns="http://www.w3.org/2000/svg" viewBox="0 -5 500 500" x="0px" y="0px"><path fill="#5e740e" d="M397.56,344.09c-1.39-28.74,2.63-44.63-37.74-108.49-8.88-14-22.71-36.45-31.29-50.69-21.06-35-54.06-96.21-67.92-156.77a4.73,4.73,0,0,0-9.22,0c-13.85,60.53-46.83,121.74-67.89,156.72-8.59,14.27-23.54,39.07-32.64,53-30.35,46.54-35.05,77.55-36.42,106.28-1.06,22.19,2.86,44.43,12.37,64.51a132.45,132.45,0,0,0,42.73,50.92,147.76,147.76,0,0,0,172.92,0,132.56,132.56,0,0,0,42.74-50.92C394.71,388.57,398.63,366.3,397.56,344.09ZM210.85,311.14c-5,19.52-20.23,32.48-34.06,28.95s-21-22.21-16-41.73,20.23-32.48,34.05-28.95S215.83,291.63,210.85,311.14Z"/></svg>
