<?xml version="1.0" encoding="UTF-8"?>
<svg width="700pt" height="700pt" version="1.1" viewBox="0 -50 700 700" xmlns="http://www.w3.org/2000/svg" xmlns:xlink="http://www.w3.org/1999/xlink">
 <g>
  <path fill="#2d3230" d="m538.78 345.42c-2.0664-22.785-7.6797-45.109-16.637-66.16-7.9258-18.234-18.449-35.223-31.238-50.445-19.5-23.461-79.438-97.562-93.875-140.84l-14.031-37.188c-11.484-30.449-54.555-30.449-66.039 0l-13.992 37.188c-14.438 43.281-74.375 117.38-93.867 140.84-12.797 15.219-23.32 32.207-31.246 50.445-8.9609 21.059-14.574 43.387-16.637 66.18-1.8125 20.43 0.66406 41.008 7.2734 60.422 17.25 50.98 50.312 81.867 83.477 100.56 29.836 16.766 63.477 25.598 97.703 25.656 34.227 0.054687 67.898-8.6641 97.793-25.328 33.328-18.594 66.555-49.48 83.934-100.55v-0.003907c6.6875-19.52 9.2031-40.227 7.3828-60.777zm-165.34 85.781c-15.363 5.4609-32.285 4.4727-46.91-2.7383-14.629-7.2109-25.715-20.031-30.746-35.543-10.172-31.555 5.6562-66.379 15.082-96.512 2.6133-8.3672 11.648-40.621 17.203-46.418h0.003906c2.3828-3.875 6.2227-6.6328 10.652-7.6562 8.3438-2.1094 16.613 1.0078 22.234 6.8242 6.3984 6.6289 26.961 67.18 31.305 77.395 3.4336 6.3633 6.4609 12.941 9.0664 19.688 11.453 30.254 9.3438 71.969-27.891 84.961z"/>
 </g>
</svg>
