<?xml version="1.0" encoding="utf-8"?>
<!-- Uploaded to: SVG Repo, www.svgrepo.com, Generator: SVG Repo Mixer Tools -->
<svg fill="#d57815" width="800px" height="800px" viewBox="0 0 32 32" version="1.1" xmlns="http://www.w3.org/2000/svg">
<title>fire</title>
<path d="M11.87 30.782c2.827-0.004 6.12-0.016 8.583-0.022 6.399-4.805 0.449-11.341-4.919-10.395 4.74 3.583 0.616 9.454-3.664 10.417zM23.245 6.173c0.001 0.045 0 0.090 0 0.136 4.927 11.598-8.514 11.801-7.44 0.717-2.601 6.269-8.292-0.134-5.683-5.695v-0c-11.473 6.657 3.244 14.186-0.636 20.745-2.189 3.7-7.109-1.768-6.756-7.912-3.107 7.886-0.845 13.525 3.212 16.583 0.107 0.026 1.583 0.036 3.653 0.037-0.212-0.054-0.419-0.125-0.622-0.214-1.335-0.586-2.12-3.808 1.822-5.503-0.787 4.838 8.606 0.838 1.458-10.24l0-0c5.318 1.677 8.675 3.745 11.078 7.434 1.694-1.511 2.91-4.074 3.28-6.596 2.713 4.869 1.466 12.355-4.95 15.092 1.419-0.003 2.37-0.002 2.471 0.005 9.657-2.17 8.694-15.283-0.886-24.589z"></path>
</svg>