<?xml version="1.0" encoding="UTF-8"?>
<svg width="700pt" height="700pt" version="1.1" viewBox="0 -50 700 700" xmlns="http://www.w3.org/2000/svg" xmlns:xlink="http://www.w3.org/1999/xlink">
 <g>
  <path fill="#d57815" d="m334.09 62.258c-5.2188 18.266-24.062 24.84-31.98 41.039v-0.003906c-3.7891 8.2734-5.2617 17.414-4.2656 26.457 0.32031 5.6016 1.5273 11.117 3.5742 16.344 0.24219 0.89844 1.3242 3.75 2.6484 7.0977 1.0312 2.6445 3.418 4.5234 6.2305 4.9023 2.8164 0.37891 5.6133-0.79688 7.3086-3.0781 5.9609-8.207 13.305-15.316 21.703-21.008 6.7617-4.3594 11.918-10.809 14.676-18.367 6.5625-17.652-0.085938-36.836-6.7266-53.387-2.3828-5.9375-11.176-6.9883-13.168 0.003906z"/>
  <path fill="#d57815" d="m216.87 113.28c-6.5469 5.9336-9.8789 14.633-8.9688 23.426-0.10156 0.96094-0.10156 1.9297 0 2.8867 1.0938 10.762 12.207 15.422 20.586 8.5195 8.3789-6.9023 11.637-19.359 8.3008-29.531v0.003907c-1.1719-4.0547-4.3828-7.1953-8.4609-8.2812-4.0742-1.0859-8.4219 0.042968-11.457 2.9766z"/>
  <path fill="#d57815" d="m560.45 171.45c-2.8203-5.6211-11.102-4.9883-14.086 0-9.1641 15.312-18.66 31.477-17.5 49.973 0.50391 8.125 2.0234 16.656 8.3438 22.105 7.4141 6.375 20.703 13.344 30.812-1.1914 3.6523-4.3086 5.3477-10.074 5.7656-15.805 1.3633-18.715-5.0352-38.598-13.336-55.082z"/>
  <path fill="#d57815" d="m597.19 437.24c0.55859-20.496-0.92969-40.996-4.4414-61.195-3.457-19.371-7.8633-39.66-17.414-57.16-6.3438-11.605-20.168-30.625-35.426-26.359-0.375 0.10937-0.74219 0.25781-1.0938 0.4375-5.4844 0.84375-10.223 4.2852-12.719 9.2422-2.4688 3.2656-4.168 7.0469-4.9766 11.059-2.1875 10.477-0.52344 21.316-3.0195 31.84-2.3086 9.7578-6.8359 19.152-15.488 24.633-13.355 8.4531-23.887 2.1875-30.273-8.3555-7.7227-20.781-2.3633-43.203 4.2773-63.633 3.9609-12.184 9.1094-24.062 11.582-36.727 2.5273-12.895 2.0664-25.594-0.29687-38.477-4.6484-25.297-15.016-48.969-18.363-74.637-1.9375-14.809-1.9453-29.652-1.4766-44.547 0.23047-7.1641 0.71094-14.316 1.5859-21.426s2.1211-13.43-0.77734-20.18c-1.4883-3.457-5.4688-3.6875-8.4102-2.3281v-0.011719c-2.3359-0.35937-4.7227 0.13281-6.7266 1.3867-36.18 21.352-63.438 56.297-76.082 96.633-7 22.379-7.0977 44.734-7.8438 67.934-0.625 19.164-4.7461 47.426-27.43 51.984-10.75 2.1875-18.988-4.7891-23.047-14.414-5.5781-13.203-1.8477-27.484-2.6562-41.246-0.078125-3.1758-1.8203-6.082-4.5859-7.6484-2.7656-1.5703-6.1523-1.5703-8.9219-0.007813-9.625 0.72266-17.742 8.8477-23.363 16.516-7.3047 9.9531-11.234 21.797-13.605 33.852-3.7969 19.273-4.6914 57.609-30.242 61.984-25.156 4.3086-38.281-24.688-40.82-45.031h0.003907c-1.5195-13.789-1.3164-27.715 0.60156-41.453 0.92969-7.2188 2.1211-14.438 3.6758-21.535 1.6406-7.4688 4.6914-14.844 5.7305-22.379 0-0.24219 3.8711-18.461-10.621-9.5273-3.2812 2.0234-6.1797 7.3047-6.1797 7.3047s-11.156 17.906-16.406 26.445c-6.7266 11.059-13.344 22.191-19.535 33.566-12.664 23.273-24.062 47.348-32.812 72.43-16.625 47.977-17.543 104.6-17.348 156.36-0.003907 5.2969 2.0898 10.379 5.8203 14.133 3.7344 3.7539 8.8047 5.8789 14.098 5.9062h58.309c2.7031-0.003906 5.1953-1.4648 6.5156-3.8242s1.2617-5.2461-0.14844-7.5508c-11.539-19.121-15.117-44.758-8.8711-63.57 0.94531-3.1797 3.5117-5.6211 6.7383-6.3984 1.8398-1.2578 4.1133-1.7148 6.2969-1.2695 9.582 1.75 17.281 5.1641 27.344 3.6523 8.7617-1.3359 17.109-4.6367 24.414-9.6562 15.793-10.805 26.195-28.055 35.734-44.211 2.0859-3.9883 6.8828-5.7148 11.035-3.9688 2.7422 1.1523 4.8516 3.4375 5.7734 6.2656 1.668 4.4922 3.0586 9.0781 4.1562 13.738 1.1211 4.7266 3.332 9.1211 6.4531 12.84 6.2031 7.2617 16.211 9.9648 25.387 7.6562 10.141-2.5039 17.02-11.66 22.672-19.828 5.25-7.7031 10.082-15.684 14.473-23.91 1.9922-3.6406 3.9375-7.3164 5.875-10.992 3.707-7.0547 11.953-4.9336 15.062 0.41406l0.10938 0.085938c2.7891 2.832 3.9375 6.5625 4.4727 10.488 0.57812 4.2227 0.44922 8.75 0.83203 12.742l-0.003907 0.003906c0.68359 8.457 2.168 16.828 4.4297 25.004 3.8164 12.984 10.566 25.965 21.734 34.082 12.82 9.3281 29.336 10.008 44.582 10.105 12.719 0.085938 27.988 0.54688 38.039-8.5859 6.332-5.7422 19.316-2.3516 18.527 7.6562-1.0234 14.668-5.0117 28.973-11.727 42.055-1.8789 3.5938-1.7422 7.9102 0.36328 11.379 2.1016 3.4688 5.8633 5.5859 9.918 5.5859h56.559c4.918-0.027344 9.6562-1.8672 13.309-5.1602 3.6484-3.2969 5.9609-7.8203 6.4883-12.711 1.793-15.566-0.17578-33 0.17578-47.48zm-436.82-49.82c-4.1992-0.82031-9.8438-6.1797-11.461-20.137-0.19531-1.6523 0.35938-7.9961 1.0938-9.582v-0.19531c1.4883-3.9062 3.9375-6.9766 8.1367-8.125l-0.003907-0.003906c0.54688-0.14844 1.1016-0.25 1.6641-0.30469 3.6562-0.84375 7.4844 0.34766 10.02 3.1172 2.6289 2.9648 4.5039 6.5234 5.4688 10.367v0.066406c0.91016 2.6445 1.3984 5.418 1.4531 8.2148 0.19922 9.7891-5.4453 18.715-16.371 16.582zm270.73-120.95c-0.74219 12.227-9.2656 31.719-28.207 31.641-13.301-0.64453-7.2422-19.445-4.375-26.664 3.0938-7.6562 2.6797-15.453 4.582-23.242 1.2461-5.1094 5.2812-9.2305 10.938-8.5742 11.625 1.3477 17.664 16.844 17.062 26.84z"/>
 </g>
</svg>
