<?xml version="1.0" encoding="UTF-8"?>
<svg width="700pt" height="700pt" version="1.1" viewBox="0 -50 700 700" xmlns="http://www.w3.org/2000/svg" xmlns:xlink="http://www.w3.org/1999/xlink">
  <path fill="#8a4b4b" d="m342.03 354.53c4.9141 0.66797 9.8984 0.64844 14.809-0.054688 2.7578-0.43359 5.1719-2.0781 6.5859-4.4844 1.4141-2.4102 1.6719-5.3203 0.71094-7.9414-1.8711-5.0859-4.8828-9.6719-8.8047-13.406-1.8164-1.7852-4.2812-2.75-6.8242-2.6797-2.5469 0.074218-4.9492 1.1797-6.6641 3.0625-3.4609 3.875-6.0039 8.4883-7.4375 13.484-0.80859 2.6172-0.42969 5.457 1.0391 7.7695 1.4648 2.3125 3.875 3.8672 6.5859 4.25z"/>
  <path fill="#8a4b4b" d="m292.14 328.65 0.40625 0.24219c4.4219 2.4609 9.6445 3.0547 14.504 1.6484 4.8633-1.4023 8.9648-4.6914 11.395-9.1289 6.793-11.953 9.8398-25.672 8.75-39.375-0.50781-6.2734-4.0977-11.883-9.5742-14.973-5.4805-3.0938-12.137-3.2656-17.77-0.46094-15.641 7.8516-23.047 19.238-26.25 26.031-1.793 3.7695-2.2617 8.0391-1.3242 12.109 3.9258 17.082 19.863 23.906 19.863 23.906z"/>
  <path fill="#8a4b4b" d="m352.19 293.26c7.5195 7.3281 14.566 15.129 21.098 23.352 2.4961 3.2344 6.2383 5.2695 10.312 5.6016 4.0742 0.32812 8.0977-1.0742 11.082-3.8633 5.2383-5.0547 10.457-13.477 12.895-27.52 0 0 3.0625-21.066-7.1641-38.105-3.0742-5.0273-7.9883-8.6562-13.699-10.113-5.7109-1.457-11.762-0.625-16.871 2.3125-8.8047 4.9062-16.18 12.023-21.395 20.652-2.5391 4.375-3.5508 9.4688-2.875 14.48 0.67969 5.0156 3.0078 9.6602 6.6172 13.203z"/>
  <path fill="#8a4b4b" d="m151.66 399.93c7.6836 3.5391 15.633 6.4648 23.777 8.75 22.719 6.4531 40.648 23.93 47.688 46.473 10.379 33.535 36.227 77.535 100.54 84.219 0 0 66.477 4.8555 107.48-30.547h-0.003907c10.227-8.9492 23.648-13.355 37.188-12.207 9.6367 0.98437 19.367 0.45703 28.844-1.5625 11.168-2.6211 21.227-8.6953 28.742-17.359 7.5117-8.668 12.102-19.484 13.113-30.91 1.0938-11.789 0.21875-26.371-6.6172-40.633-2.668-5.6758-3.6602-11.996-2.8555-18.215 0.80469-6.2227 3.3711-12.082 7.3945-16.895 8.8164-10.641 18.09-26.93 20.594-49.887v-0.51562c3.5469-34.078-23.469-64.035-57.703-64.145-6.3711 0-12.734 0.51953-19.02 1.5508-3.0312 0.48438-6.125-0.38672-8.457-2.3828-2.332-1.9961-3.6719-4.9141-3.6641-7.9844v-0.20703c-0.035156-3.1758 1.4648-6.1719 4.0273-8.0508 0.55859-0.39453 1.0938-0.79688 1.6172-1.2031 10.504-8.3984 15.891-21.656 14.219-35-3.7852-33.117-20.07-83.125-79.254-118.54-48.715-29.129-109.78-30.199-158.14-0.46094-23.527 14.48-46.234 37.395-62.125 73.445-4.5938 10.324-5.6523 21.879-3.0078 32.867 2.6445 10.988 8.8398 20.797 17.633 27.902l0.91797 0.72266c3.1719 2.3789 4.8398 6.2656 4.375 10.203-0.37891 2.9219-1.918 5.5664-4.2734 7.3398-2.3555 1.7695-5.3281 2.5156-8.2383 2.0664l-1.1719-0.17578c-20.707-3.0195-41.785 1.9883-58.922 14-17.133 12.008-29.031 30.113-33.258 50.609-0.078125 0.41406-0.16406 0.83203-0.24219 1.2461-3.6367 19.078-0.8125 38.82 8.0234 56.113 8.8398 17.293 23.188 31.145 40.781 39.371zm332.32-73.598c4.2852 0 8.3945 1.7031 11.422 4.7305 3.0312 3.0312 4.7344 7.1406 4.7344 11.422 0 4.2852-1.7031 8.3945-4.7344 11.426-3.0273 3.0273-7.1367 4.7305-11.422 4.7305s-8.3945-1.7031-11.422-4.7305c-3.0312-3.0312-4.7344-7.1406-4.7344-11.426s1.6992-8.3945 4.7305-11.426c3.0312-3.0273 7.1406-4.7305 11.426-4.7266zm-213.83-190.77c4.4883 0 8.793 1.7852 11.965 4.957s4.957 7.4766 4.957 11.965-1.7852 8.7891-4.957 11.965c-3.1719 3.1719-7.4766 4.9531-11.965 4.9531s-8.793-1.7812-11.965-4.9531c-3.1719-3.1758-4.957-7.4766-4.957-11.965s1.7852-8.793 4.957-11.965 7.4766-4.957 11.965-4.957zm-24.621 125.32c12.219-26.086 30.625-41.43 48.047-50.445h0.003907c28.531-14.719 62.219-15.613 91.492-2.4297 34.016 15.312 46.277 44.164 50.203 68.348v0.003906c2.6211 16.805 1.75 33.977-2.5625 50.43-6.6602 26.086-7 46.746-6.3672 58.34l0.003907 0.003906c0.13281 2.6914-0.84766 5.3203-2.707 7.2734-1.8633 1.9492-4.4414 3.0547-7.1367 3.0508h-0.51562c-3.8633-0.050781-7.2773-2.5391-8.5078-6.2031-0.13281-0.38281-0.27344-0.73438-0.42578-1.0938-3.8516-8.9141-16.254-9.8438-21.699-1.8047-7.2734 10.73-8.3906 29.215-8.3008 40.566h-0.003906c0.019531 2.6172-1.0078 5.1328-2.8594 6.9844-1.8516 1.8516-4.3672 2.8828-6.9844 2.8594h-4.4961c-2.6602 0.003906-5.2109-1.082-7.0547-3-1.8477-1.9219-2.8281-4.5078-2.7227-7.1719 1.0938-30.383-12.219-36.762-17.883-38.105-1.1445-0.28516-2.332-0.39062-3.5117-0.30469-8.3359 0.77734-12.031 10.938-13.617 18.254-0.99219 4.4805-4.9688 7.668-9.5586 7.6562h-0.86328c-5.1211 0.003906-9.3711-3.9492-9.7461-9.0547-2.1875-29.039-32.277-54.227-32.277-54.227-41.934-30.641-19.949-89.93-19.949-89.93z"/>
</svg>
