<svg xmlns="http://www.w3.org/2000/svg" xmlns:xlink="http://www.w3.org/1999/xlink" version="1.1" x="0px" y="0px" viewBox="1 0 50 50" style="enable-background:new 0 0 52 52;" xml:space="preserve"><g>
<path fill="#d4b84b" d="M25.9991245,30.4609909c-1.4136963,0-2.743042-0.3649292-3.9016113-1.0028076l-1.7385254,14.7230835   c-0.0300293,0.2699585,0.039978,0.539978,0.2099609,0.75l4.6500244,5.6900024   c0.1900024,0.2399902,0.4699707,0.3699951,0.7799683,0.3699951c0.3000488,0,0.5900269-0.1300049,0.7800293-0.3699951   l4.6400146-5.6900024c0.1799927-0.210022,0.25-0.4800415,0.2199707-0.75l-1.7385254-14.7230225   C28.7420444,30.0961227,27.4128208,30.4609909,25.9991245,30.4609909z M26.6983433,43.7715378   c-0.1796875,0.1796875-0.4394531,0.2890625-0.7099609,0.2890625c-0.2597656,0-0.5195313-0.109375-0.6992188-0.2890625   c-0.1904297-0.1904297-0.2900391-0.4501953-0.2900391-0.7109375c0-0.2597656,0.0996094-0.5195313,0.2900391-0.7099609   c0.3691406-0.3691406,1.0498047-0.3691406,1.4091797,0c0.1904297,0.1904297,0.2900391,0.4501953,0.2900391,0.7099609   C26.9883823,43.3213425,26.888773,43.5811081,26.6983433,43.7715378z"/>
<path fill="#d4b84b" d="M46.9989395,21.5812302l-5.6999512-4.6399536c-0.2300415-0.1900024-0.5300293-0.2700195-0.8200073-0.210022   l-7.519043,1.4906616c0.7244263,1.2136841,1.1485596,2.6263428,1.1485596,4.1394653   c0,1.5136108-0.4255371,2.9265747-1.1521606,4.1399536l7.522644,1.4899292   c0.0599976,0.0100098,0.1300049,0.0199585,0.1900024,0.0199585c0.2299805,0,0.4500122-0.0799561,0.6300049-0.2299805   l1.8200073-1.4699707c1.25-1.0300293,2.25-1.8400269,3.8799438-3.1700439   c0.0400391-0.0299683,0.0800171-0.0799561,0.1200562-0.1199951c0.1799927-0.2000122,0.2699585-0.4699707,0.25-0.7399902   C47.3389664,22.0012741,47.2089615,21.7512741,46.9989395,21.5812302z M41.3790054,23.0713425   c-0.1904297,0.1796875-0.4404297,0.2900391-0.7099609,0.2900391c-0.2607422,0-0.5205078-0.1103516-0.7001953-0.2900391   c-0.1904297-0.1904297-0.2998047-0.4501953-0.2998047-0.7099609c0-0.2607422,0.109375-0.5205078,0.2998047-0.7099609   c0.3701172-0.3701172,1.0400391-0.3701172,1.4101563,0c0.1894531,0.1894531,0.2900391,0.4492188,0.2900391,0.7099609   C41.6690445,22.6211472,41.5684586,22.8809128,41.3790054,23.0713425z"/>
<path fill="#d4b84b" d="M19.0368443,18.2231369l-7.5178833-1.4918823c-0.289978-0.0599976-0.5899658,0.0200195-0.8200073,0.210022   l-1.4799805,1.1999512c-1.4199834,1.1600342-2.4500127,2-4.2200322,3.4400024   c-0.0199585,0.0200195-0.0499878,0.0500488-0.0799561,0.0800171c-0.2000122,0.2000122-0.2999878,0.4700317-0.2900391,0.7600098   c0.0100098,0.2799683,0.1500244,0.539978,0.3699951,0.7199707l5.7000127,4.6500244   c0.1799927,0.1400146,0.4000244,0.2199707,0.6300049,0.2199707c0.0599976,0,0.1300049-0.0099487,0.1900024-0.0199585   l7.5214844-1.4911499c-0.7263184-1.2130737-1.1516724-2.6256104-1.1516724-4.1387329   C17.888773,20.8487473,18.3127232,19.4365158,19.0368443,18.2231369z M12.7090855,23.0713425   c-0.1806641,0.1796875-0.4404297,0.2900391-0.7001953,0.2900391s-0.5205078-0.1103516-0.7099609-0.2900391   c-0.1904297-0.1904297-0.2900391-0.4501953-0.2900391-0.7099609c0-0.2705078,0.0996094-0.5205078,0.2900391-0.7099609   c0.3798828-0.3701172,1.0400391-0.3701172,1.4101563,0c0.1894531,0.1894531,0.2998047,0.4394531,0.2998047,0.7099609   C13.0088902,22.6211472,12.8985386,22.8809128,12.7090855,23.0713425z"/>
<path fill="#d4b84b" d="M25.9991245,14.25103c1.5126343,0,2.9246826,0.4239502,4.1379395,1.1480713l1.4918823-7.5178223   c0.0599976-0.2900391-0.0199585-0.5900269-0.2099609-0.8200073l-4.6400146-5.7000122   c-0.3800049-0.4700317-1.1799927-0.4700317-1.5599976,0l-4.6500244,5.7000122   c-0.1799927,0.2299805-0.2600098,0.5299683-0.1999512,0.8200073l1.4918823,7.5178223   C23.0742588,14.6749802,24.4864902,14.25103,25.9991245,14.25103z M25.2891636,7.0606003   c0.3691406-0.3691406,1.0498047-0.3691406,1.4199219,0c0.1796875,0.1806641,0.2900391,0.4404297,0.2900391,0.7109375   c0,0.2597656-0.1103516,0.5195313-0.3007813,0.7099609c-0.1796875,0.1796875-0.4296875,0.2900391-0.6992188,0.2900391   c-0.2705078,0-0.5205078-0.1103516-0.7099609-0.3007813c-0.1806641-0.1796875-0.2900391-0.4394531-0.2900391-0.6992188   C24.9991245,7.50103,25.1084995,7.25103,25.2891636,7.0606003z"/>
<path fill="#d4b84b" d="M25.9989414,16.2512741c-3.3699951,0-6.1099854,2.7399902-6.1099854,6.1099854s2.7399902,6.0999756,6.1099854,6.0999756   c3.3700562,0,6.1100445-2.7299805,6.1100445-6.0999756S29.3689976,16.2512741,25.9989414,16.2512741z"/></g>
</svg>