<?xml version="1.0" encoding="utf-8"?>
<svg viewBox="108 150 300 200" width="473.27" height="357.086" xmlns="http://www.w3.org/2000/svg">
  <path fill="#8c238a" d="M 258.454 76.829 L 237.368 85.255 L 230.913 104.178 C 227.477 118 239.586 134.435 257.033 134.435 C 264.826 134.435 273.709 130.201 279.093 124.239 C 284.475 118.277 286.393 112.004 283.568 105.304 L 279.159 86.724 L 258.454 76.829 Z M 176.375 143.875 C 183.312 179.01 216.429 205.497 256.383 205.497 C 296.337 205.497 329.457 179.01 336.393 143.874 C 317.797 166.154 289.133 180.632 256.383 180.632 C 223.633 180.632 194.97 166.156 176.375 143.875 Z M 131.48 196.939 C 149.55 241.997 198.704 274.612 256.383 274.612 C 314.061 274.612 363.219 241.998 381.287 196.939 C 351.032 227.336 306.053 246.579 256.383 246.579 C 206.713 246.579 161.733 227.336 131.48 196.939 Z M 64.28 251.837 C 98.877 312.07 171.553 354.037 256.383 354.037 C 340.903 354.037 413.733 312.371 448.488 252.495 C 399.926 294.888 331.858 321.73 256.383 321.73 C 180.509 321.73 112.89 294.623 64.279 251.836 L 64.28 251.837 Z M 19.748 322.483 C 67.823 388.963 155.532 433.915 256.383 433.915 C 357.233 433.915 444.943 388.962 493.018 322.483 C 431.315 370.717 348.188 400.288 256.383 400.288 C 164.577 400.288 81.45 370.718 19.748 322.483 Z"/>
</svg>