<?xml version="1.0" encoding="UTF-8"?>
<svg width="700pt" height="700pt" version="1.1" viewBox="0 -50 700 700" xmlns="http://www.w3.org/2000/svg" xmlns:xlink="http://www.w3.org/1999/xlink">
 <g>
  <path fill="#d4b84b" d="m478.14 280c0 70.773-57.371 128.14-128.14 128.14s-128.14-57.371-128.14-128.14 57.371-128.14 128.14-128.14 128.14 57.371 128.14 128.14"/>
  <path fill="#d4b84b" d="m341.61 33.371c-9.3398 23.723-23.328 56.316-31.422 77.293-1.1836 2.9805-0.64453 6.3711 1.4102 8.8359 2.0508 2.4609 5.2891 3.6055 8.4336 2.9766 19.84-3.7617 40.207-3.7617 60.047 0 3.1367 0.60547 6.3516-0.54687 8.3906-3.0078s2.5742-5.832 1.3984-8.8047c-8.1484-20.977-22.137-53.57-31.477-77.293-1.3477-3.4023-4.6328-5.6406-8.293-5.6445h-0.19531c-3.6602 0.003907-6.9453 2.2422-8.293 5.6445z"/>
  <path fill="#d4b84b" d="m341.61 526.63c-9.3398-23.723-23.328-56.316-31.422-77.293-1.1836-2.9805-0.64453-6.3711 1.4102-8.8359 2.0508-2.4609 5.2891-3.6055 8.4336-2.9766 19.84 3.7617 40.207 3.7617 60.047 0 3.1367-0.60547 6.3516 0.54687 8.3906 3.0078s2.5742 5.832 1.3984 8.8047c-8.0703 20.945-22.082 53.594-31.422 77.297v-0.003906c-1.3477 3.4023-4.6328 5.6406-8.293 5.6445h-0.19531c-3.6797 0.019531-6.9922-2.2227-8.3477-5.6445z"/>
  <path fill="#d4b84b" d="m596.63 271.61c-23.723-9.3398-56.316-23.328-77.293-31.422-2.9805-1.1836-6.3711-0.64453-8.8359 1.4102-2.4609 2.0508-3.6055 5.2891-2.9766 8.4336 3.7617 19.84 3.7617 40.207 0 60.047-0.60547 3.1367 0.54687 6.3516 3.0078 8.3906s5.832 2.5742 8.8047 1.3984c20.945-8.0703 53.594-22.082 77.297-31.422h-0.003906c3.4023-1.3477 5.6406-4.6328 5.6445-8.293v-0.19531c0.019531-3.6797-2.2227-6.9922-5.6445-8.3477z"/>
  <path fill="#d4b84b" d="m103.37 271.61c23.723-9.3398 56.316-23.328 77.293-31.422 2.9805-1.1836 6.3711-0.64453 8.8359 1.4102 2.4609 2.0508 3.6055 5.2891 2.9766 8.4336-3.7617 19.84-3.7617 40.207 0 60.047 0.60547 3.1367-0.54687 6.3516-3.0078 8.3906s-5.832 2.5742-8.8047 1.3984c-20.977-8.1484-53.57-22.137-77.293-31.477-3.4023-1.3477-5.6406-4.6328-5.6445-8.293v-0.19531c0.003907-3.6602 2.2422-6.9453 5.6445-8.293z"/>
  <path fill="#d4b84b" d="m518.44 99.672c-23.375 10.172-56.359 23.328-76.879 32.441-2.9492 1.2656-4.9688 4.0391-5.2656 7.2344-0.29688 3.1953 1.1797 6.293 3.8438 8.0781 16.684 11.375 31.086 25.777 42.457 42.461 1.7852 2.6641 4.8867 4.1406 8.082 3.8438 3.1914-0.29688 5.9688-2.3164 7.2305-5.2656 9.1094-20.52 22.27-53.508 32.441-76.879 1.4531-3.3594 0.70703-7.2617-1.8789-9.8438l-0.13281-0.13281c-2.582-2.6289-6.5156-3.3984-9.8984-1.9375z"/>
  <path fill="#d4b84b" d="m169.67 448.44c10.172-23.375 23.328-56.359 32.441-76.879 1.2656-2.9492 4.0391-4.9688 7.2344-5.2656 3.1953-0.29688 6.293 1.1797 8.0781 3.8438 11.375 16.684 25.777 31.086 42.461 42.457 2.6641 1.7852 4.1406 4.8867 3.8438 8.082-0.29688 3.1914-2.3164 5.9688-5.2656 7.2305-20.52 9.1094-53.508 22.27-76.879 32.441-3.3594 1.4531-7.2617 0.70703-9.8438-1.8789l-0.13281-0.13281c-2.6289-2.582-3.3984-6.5156-1.9375-9.8984z"/>
  <path fill="#d4b84b" d="m530.33 448.44c-10.172-23.375-23.328-56.359-32.441-76.879-1.2656-2.9492-4.0391-4.9688-7.2344-5.2656-3.1953-0.29688-6.293 1.1797-8.0781 3.8438-11.375 16.684-25.777 31.086-42.461 42.457-2.6641 1.7852-4.1406 4.8867-3.8438 8.082 0.29688 3.1914 2.3164 5.9688 5.2656 7.2305 20.52 9.1094 53.508 22.27 76.879 32.441 3.3594 1.4531 7.2617 0.70703 9.8438-1.8789l0.13281-0.13281c2.6289-2.582 3.3984-6.5156 1.9375-9.8984z"/>
  <path fill="#d4b84b" d="m181.56 99.672c23.375 10.172 56.359 23.328 76.879 32.441 2.9492 1.2656 4.9688 4.0391 5.2656 7.2344 0.29688 3.1953-1.1797 6.293-3.8438 8.0781-16.684 11.375-31.086 25.777-42.457 42.461-1.7852 2.6641-4.8867 4.1406-8.082 3.8438-3.1914-0.29688-5.9688-2.3164-7.2305-5.2656-9.1094-20.52-22.27-53.508-32.441-76.879-1.4531-3.3594-0.70703-7.2617 1.8789-9.8438l0.13281-0.13281c2.582-2.6289 6.5156-3.3984 9.8984-1.9375z"/>
 </g>
</svg>
