<svg xmlns:dc="http://purl.org/dc/elements/1.1/" xmlns:cc="http://creativecommons.org/ns#" xmlns:rdf="http://www.w3.org/1999/02/22-rdf-syntax-ns#" xmlns:svg="http://www.w3.org/2000/svg" xmlns="http://www.w3.org/2000/svg" xmlns:sodipodi="http://sodipodi.sourceforge.net/DTD/sodipodi-0.dtd" xmlns:inkscape="http://www.inkscape.org/namespaces/inkscape" version="1.1" x="0px" y="0px" viewBox="-10 -10 120 120"><g transform="translate(0,-952.36218)"><path style="text-indent:0;text-transform:none;direction:ltr;block-progression:tb;baseline-shift:baseline;color:#000000;enable-background:accumulate;" d="m 47.250001,962.40904 -12.2188,37.5625 a 2.0002,2.0002 0 1 0 3.7812,1.21876 l 11.1563,-34.31251 5.6875,17.625 a 2.0060942,2.0060942 0 1 0 3.8125,-1.25 l -6.75,-20.84375 c 15.617797,1.05435 28.775897,11.0364 34.374997,24.90625 l -40.499997,0 a 2.0002,2.0002 0 1 0 0,4 l 37.031297,0 -14.6876,10.65621 a 2.0002,2.0002 0 1 0 2.375,3.2188 l 17.4688,-12.68751 c 0.7856,3.13027 1.2188,6.40537 1.2188,9.78121 0,12.3236 -5.5709,23.3535 -14.3126,30.6876 L 63.062401,994.15904 a 2.0002,2.0002 0 0 0 -1.9687,-1.40625 2.0002,2.0002 0 0 0 -1.8437,2.65625 l 11.531198,35.46876 -14.937497,-10.875 a 2.0002,2.0002 0 0 0 -1.125,-0.375 2.0002,2.0002 0 0 0 -0.4063,0 2.0002,2.0002 0 0 0 -0.8437,3.625 l 17.812497,12.9063 c -6.1647,3.8803 -13.451497,6.1562 -21.281197,6.1562 -7.8335,0 -15.148,-2.2759 -21.3126,-6.1562 l 32.6876,-23.75 a 2.0002,2.0002 0 0 0 -1.0938,-3.6251 2.0002,2.0002 0 0 0 -0.2188,0 2.0002,2.0002 0 0 0 -1.0312,0.4063 l -29.8438,21.6875 5.5,-17 a 2.0002,2.0002 0 0 0 -1.875,-2.625 2.0002,2.0002 0 0 0 -1.9374,1.4063 l -6.5938,20.3125 c -8.7406,-7.334 -14.2812,-18.3637 -14.2812,-30.6876 0,-3.3757 0.4024,-6.65108 1.1874,-9.7812 l 32.9688,23.9688 a 2.0034906,2.0034906 0 1 0 2.3438,-3.25 l -30.1563,-21.9063 18.1563,0 a 2.0002,2.0002 0 1 0 0,-4 l -21.625,0 c 5.5954,-13.86685 18.7553,-23.84821 34.375,-24.90625 z" fill="#c15a5a" fill-opacity="1" fill-rule="evenodd" stroke="none" marker="none" visibility="visible" display="inline" overflow="visible"/></g></svg>