<?xml version="1.0" encoding="UTF-8"?>
<svg width="700pt" height="700pt" version="1.1" viewBox="0 -50 700 700" xmlns="http://www.w3.org/2000/svg" xmlns:xlink="http://www.w3.org/1999/xlink">
 <g>
  <path fill="#52a256" d="m445.54 98.477 84.176 84.176c10.805 10.805 8.7617 30.375 0 39.133l-0.007812 0.007813c-10.805 10.805-28.328 10.805-39.133 0l-84.176-84.176c-10.805-10.805-8.7617-30.375 0-39.133l0.007812-0.007813c10.805-10.805 28.328-10.805 39.133 0z"/>
  <path fill="#52a256" d="m484.17 106.39 37.625 37.637v-0.003906c2.5391 2.5391 6.3789 3.25 9.6562 1.7852l60.156-26.754c2.1797-0.96875 3.7461-2.9453 4.1836-5.293 0.4375-2.3438-0.30859-4.7539-1.9961-6.4414l-36.465-36.457-36.465-36.453c-1.6914-1.6875-4.1016-2.4336-6.4453-1.9961s-4.3242 2-5.293 4.1836l-26.785 60.145c-1.4492 3.2852-0.72266 7.1211 1.8281 9.6484z"/>
  <path fill="#52a256" d="m306.43 281.43c0 14.758-11.965 26.719-26.723 26.719-14.754 0-26.719-11.961-26.719-26.719 0-14.758 11.965-26.723 26.719-26.723 14.758 0 26.723 11.965 26.723 26.723"/>
  <path fill="#52a256" d="m409.59 171.5c-3.6016-3.5938-9.2852-4.0117-13.375-0.98438-19.141 14.066-50.445 27.52-92.008 13.387-30.051-10.23-61.926-14-93.535-11.059-31.605 2.9453-62.238 12.531-89.887 28.133-5.0586 2.8633-9.2695 7.0195-12.203 12.043-2.9336 5.0234-4.4805 10.73-4.4844 16.547v284.38c0.023438 7.6133 6.1992 13.77 13.812 13.77h278.61c11.629-0.027344 22.379-6.1797 28.297-16.188 16.598-27.996 26.934-59.262 30.297-91.637 3.3594-32.375-0.33203-65.094-10.828-95.906-14.133-41.562-0.66797-72.855 13.398-92.008 3.0195-4.0898 2.6016-9.7734-0.98438-13.375zm-235.68 206.79c-4.3281 4.3242-10.199 6.75-16.316 6.7461-6.1211 0-11.988-2.4336-16.312-6.7617-4.3281-4.3281-6.7578-10.195-6.7578-16.316 0-6.1172 2.4297-11.984 6.7578-16.312 4.3242-4.3281 10.191-6.7617 16.312-6.7656 6.1172 0 11.988 2.4258 16.316 6.75 4.3359 4.3281 6.7734 10.203 6.7734 16.328 0 6.1289-2.4375 12.004-6.7734 16.332zm147.3 90.781c-6.7734 6.7578-15.953 10.555-25.523 10.547-9.5664-0.003906-18.742-3.8086-25.508-10.578-6.7656-6.7695-10.562-15.945-10.562-25.516 0-9.5664 3.7969-18.746 10.562-25.512 6.7656-6.7695 15.941-10.574 25.508-10.582 9.5703-0.003906 18.75 3.7891 25.523 10.551 6.7891 6.7734 10.602 15.965 10.602 25.555s-3.8125 18.785-10.602 25.555zm58.637-62.562-0.16406-0.16406s-43.391-56.953-97.18-64.641c-50.75-7.25-82.273-37.066-82.273-37.066-15.938-15.945-24.402-30.242-28.438-42.438-2.6719-8.1445-1.8984-17.027 2.1328-24.59s10.977-13.152 19.227-15.477c46.289-13.004 84.219-1.0938 94.25 2.668 3.9922 1.4883 8.0078 2.8867 12.098 4.0352 36.883 10.379 64.531 3.3789 78.574-2.2852 3.2969-1.3359 6.9102-1.6758 10.398-0.97266 3.4883 0.70312 6.6914 2.4141 9.2109 4.9219 2.5117 2.5195 4.2266 5.7227 4.9297 9.2109 0.69922 3.4883 0.35938 7.1055-0.98047 10.402-5.4688 13.715-12.293 40.25-3.0625 75.688 1.3047 4.9844 2.8789 9.8945 4.7148 14.711 6 16.867 8.9609 34.664 8.75 52.562-0.16406 16.727-20.344 25.211-32.191 13.453z"/>
 </g>
</svg>
