<svg xmlns="http://www.w3.org/2000/svg" viewBox="-15 10 550 550" x="0px" y="0px">
<path fill="#52a256" d="M232.89,64h46.22a10.83,10.83,0,0,0,10.31-7.48L295.76,37a6.73,6.73,0,0,0-6.4-8.8H222.64a6.73,6.73,0,0,0-6.4,8.8l6.34,19.49A10.83,10.83,0,0,0,232.89,64Z"/>
<path fill="#52a256" d="M287.57,304.4a15,15,0,0,0-15.9,5.3,26.06,26.06,0,0,0-5.25,11.89,14,14,0,0,0,.38,5.75,30.27,30.27,0,0,0,9.34,15.18,14.79,14.79,0,0,0,16,2.11c5.19-2.52,11.26-7.41,12.75-16.72C307,314.68,297.88,307.28,287.57,304.4Z"/>
<path fill="#52a256" d="M262.64,345.49a5.09,5.09,0,0,0-6.13,0c-3.87,2.91-9.81,8.4-7.82,13.49,2.87,7.39,10.88,6.36,10.88,6.36s8,1,10.89-6.36C272.45,353.89,266.51,348.4,262.64,345.49Z"/>
<path fill="#52a256" d="M252.73,321.59a26.07,26.07,0,0,0-5.26-11.89,14.93,14.93,0,0,0-15.89-5.3c-10.31,2.88-19.43,10.28-17.31,23.51,1.5,9.31,7.57,14.2,12.76,16.72a14.77,14.77,0,0,0,16-2.11,30.23,30.23,0,0,0,9.35-15.18A14,14,0,0,0,252.73,321.59Z"/>
<path fill="#52a256" d="M294.76,162a25.28,25.28,0,0,1-18.49-18.06,50,50,0,0,1-1.76-13c0-1.53.06-3,.18-4.36a12.79,12.79,0,0,1,12.72-11.73h12c8.56,0,15.89-6.69,16.05-15.24A15.54,15.54,0,0,0,300,83.8H212.57c-8.56,0-15.89,6.7-16,15.25a15.53,15.53,0,0,0,15.53,15.82h12.54a12.79,12.79,0,0,1,12.72,11.73c.12,1.38.18,2.83.18,4.36a49.75,49.75,0,0,1-1.77,13A25.29,25.29,0,0,1,217.25,162C145.1,179.34,91.11,244.1,89.85,320.81a165.73,165.73,0,0,0,57.44,128.46,12.44,12.44,0,0,1,4.29,9.41v15.15a10,10,0,0,0,10,10H350.43a10,10,0,0,0,10-10V458.68a12.45,12.45,0,0,1,4.3-9.41,166.18,166.18,0,0,0-70-287.28Zm20.53,97.28,8.74-7.11a2.87,2.87,0,0,0,.41-4l0-.05a15.57,15.57,0,1,1,27.31-6.65,4.26,4.26,0,0,0,2.29,4.66,12.34,12.34,0,0,1,3.93,3.08A12.81,12.81,0,0,1,356.59,267a12.67,12.67,0,0,1-18.11-1.6l-.09-.11a2.78,2.78,0,0,0-3.91-.41l-8.23,6.7a4.3,4.3,0,0,1-5.91-.47q-2.49-2.74-5.22-5.28A4.32,4.32,0,0,1,315.29,259.27Zm-164.2-17.08A15.53,15.53,0,0,1,165.23,236a4.28,4.28,0,0,0,4.4-2.76,12.42,12.42,0,0,1,2.66-4.23,12.8,12.8,0,0,1,17.86-.48,12.67,12.67,0,0,1,.27,18.17l-.11.11a2.79,2.79,0,0,0,0,3.93l7.5,7.5a4.3,4.3,0,0,1,.15,5.93q-2.49,2.76-4.72,5.73a4.33,4.33,0,0,1-6.53.5l-8-8a2.85,2.85,0,0,0-4.05,0l-.05,0a15.57,15.57,0,0,1-23.55-20.24Zm44.42,145.16L188,393.48a2.87,2.87,0,0,0-.41,4l0,.05a15.57,15.57,0,1,1-27.31,6.66,4.25,4.25,0,0,0-2.29-4.66,12.59,12.59,0,0,1-3.95-3.1,12.82,12.82,0,0,1,1.39-17.83,12.68,12.68,0,0,1,18.08,1.62l.09.11a2.77,2.77,0,0,0,3.91.41l7.26-5.9a4.31,4.31,0,0,1,5.92.44c1.53,1.69,3.48,3.82,5.25,5.74A4.32,4.32,0,0,1,195.51,387.35Zm98.57-14.76-3.28,21.17c-.79,5.09-4.56,9-9.23,9.53h0a2.84,2.84,0,0,1-3.16-2.84V382.86a5.89,5.89,0,0,0-6.46-5.86,6.06,6.06,0,0,0-5.31,6.11V402a2.54,2.54,0,0,1-2.46,2.55q-4.57.11-9.15,0a2.55,2.55,0,0,1-2.47-2.55V382.86a5.89,5.89,0,0,0-6.46-5.86,6.06,6.06,0,0,0-5.31,6.11v17.34a2.84,2.84,0,0,1-3.15,2.84h0c-4.67-.55-8.44-4.44-9.23-9.53l-3.28-21.17a63.17,63.17,0,1,1,69,0Zm66.83,30.87a15.54,15.54,0,0,1-14.14,6.23,4.26,4.26,0,0,0-4.39,2.76A12.67,12.67,0,1,1,321.58,399l.11-.1a2.8,2.8,0,0,0,0-3.94l-6.62-6.61a4.32,4.32,0,0,1-.16-5.94c1.52-1.69,3.44-3.85,5.17-5.8a4.31,4.31,0,0,1,6.3-.21l6.88,6.87a2.86,2.86,0,0,0,4.05,0l.05-.05a15.57,15.57,0,0,1,23.55,20.25Z"/>
</svg>