<?xml version="1.0" encoding="utf-8"?>
<svg viewBox="0 -3 448 504.9401" width="428" height="484.9401" xmlns="http://www.w3.org/2000/svg">
  <path fill="#c0c0c0" d="M 202.027 18.588 C 215.689 11.137 232.216 11.137 245.973 18.588 L 413.448 110.016 C 418.32 112.69 421.374 117.849 421.374 123.39 C 421.374 128.932 418.32 134.09 413.448 136.765 L 231.356 236.122 C 226.77 238.607 221.325 238.607 216.74 236.122 L 34.552 136.765 C 29.68 134.09 26.624 128.932 26.624 123.39 C 26.624 117.849 29.68 112.69 34.552 110.016 L 202.027 18.588 Z M 32.641 171.159 L 200.784 262.873 C 205.657 265.548 208.714 270.707 208.714 276.248 L 208.714 482.605 C 208.714 487.955 205.849 493.019 201.263 495.789 C 196.674 498.556 190.85 498.655 186.169 496.076 L 33.884 412.956 C 19.171 404.935 10 389.553 10 372.738 L 10 184.533 C 10 179.183 12.867 174.12 17.451 171.349 C 22.037 168.574 27.866 168.483 32.547 171.062 L 32.641 171.159 Z M 415.453 171.159 C 420.228 168.574 425.963 168.675 430.549 171.445 C 435.134 174.216 438 179.183 438 184.629 L 438 372.835 C 438 389.649 428.829 405.029 414.116 413.055 L 261.929 495.979 C 257.15 498.556 251.419 498.464 246.833 495.693 C 242.248 492.922 239.381 487.955 239.381 482.509 L 239.381 276.153 C 239.381 270.516 242.439 265.453 247.31 262.778 L 415.453 171.062 L 415.453 171.159 Z" style="stroke: rgb(0, 0, 0); stroke-miterlimit: 11.88; stroke-linejoin: round; stroke-linecap: round; paint-order: fill markers; stroke-width: 20px;"/>
</svg>