<?xml version="1.0" encoding="utf-8"?>

<!-- Uploaded to: SVG Repo, www.svgrepo.com, Generator: SVG Repo Mixer Tools -->
<svg height="800px" width="800px" version="1.1" id="_x32_" xmlns="http://www.w3.org/2000/svg" xmlns:xlink="http://www.w3.org/1999/xlink" 
	 viewBox="-50 -50 612 612"  xml:space="preserve">
<g>
	<path style="fill:#dfdfdf;" d="M384.666,268.189c-40.783,3.87-74.411-2.838-100.612-12.41c26.045-10.036,59.55-17.293,100.392-14.116
		c81.211,6.336,138.581-45.509,123.556-100.81c-14.721-54.126-75.111-57.666-90.2-49.379c8.043-15.24,3.481-75.559-50.886-89.364
		c-55.537-14.1-106.412,44.116-98.72,125.217c3.861,40.788-2.851,74.411-12.435,100.616
		c-10.028-26.046-17.293-59.559-14.104-100.396c6.328-81.202-45.5-138.582-100.806-123.544
		C86.725,18.711,83.172,79.106,91.455,94.194c-15.222-8.034-75.551-3.48-89.342,50.883C-11.991,200.63,46.238,251.48,127.322,243.8
		c40.783-3.861,74.41,2.847,100.625,12.435c-26.046,10.02-59.564,17.293-100.406,14.108C46.343,264.016-11.04,315.845,3.985,371.137
		c14.721,54.135,75.107,57.684,90.2,49.387c-8.031,15.224-3.468,75.56,50.886,89.364c55.55,14.108,106.412-44.116,98.724-125.217
		c-3.865-40.788,2.856-74.402,12.431-100.616c10.028,26.045,17.306,59.567,14.116,100.404
		c-6.344,81.195,45.501,138.574,100.794,123.545c54.135-14.717,57.679-75.112,49.383-90.2c15.236,8.042,75.564,3.481,89.368-50.882
		C523.99,311.376,465.75,260.519,384.666,268.189z"/>
</g>
</svg>