<svg version="1.1" id="_x32_" xmlns="http://www.w3.org/2000/svg" xmlns:xlink="http://www.w3.org/1999/xlink" viewBox="0 0 512 512" xml:space="preserve" fill="#ffffff"><g id="SVGRepo_bgCarrier" stroke-width="0"></g><g id="SVGRepo_tracerCarrier" stroke-linecap="round" stroke-linejoin="round"></g><g id="SVGRepo_iconCarrier"> <style type="text/css"> .st0{fill:#ffffff;} </style> <g> <path class="st0" d="M501.553,219.44c-5.838-5.481-14.279-7.182-21.787-4.379l-45.01,16.794c0.07-0.233,0.14-0.473,0.209-0.699 c7.058-15.38,11.026-32.47,11.026-50.499c0-66.914-54.25-121.164-121.164-121.164c-50.997,0-93.165,37.696-109.548,69.965 c-3.408,6.717-20.289,21.251-39.117,9.356c-18.829-11.887-31.237-33.341-44.599-54.514c-17.843-28.246-51.059-19.535-62.441,8.922 C42.36,160.12-38.173,202.661,21.551,207.693c35.677,3.012,60.95-16.352,71.355-23.782c10.412-7.431-2.974,26.764,17.842,31.22 c20.133,4.309,22.462-20.941,41.066,5.854c-24.528,40.134-65.408,65.408-105.922,92.777c-41.889,28.301-50.57,56.121,20.436,43.9 c30.77-5.303,33.644,1.7,19.574,9.48c-13.3,7.36-45.29,20.381-65.283,26.888c-19.085,6.219-14.264,36.85,32.843,32.502 c36.633-3.378,70.718-4.123,95.223-12.105c19.986-6.506,26.919-0.683,0.155,10.218c-59.684,24.318,13.386,53.52,137.337-12.78 c46.742-25.002,78.708-52.728,102.909-85.882c4.092,4.79,10.218,7.376,19.326,2.633c22.688-11.81,32.378,0.497,16.514,14.364 c-18.611,16.29-16.918,54.918,35.104,21.438c52.029-33.488,50.857-112.918,50.857-112.918 C514.854,234.045,507.392,224.929,501.553,219.44z M284.631,159.988c0,0,14.45,28.906,31.314,38.542 C274.996,222.607,258.139,179.259,284.631,159.988z M348.043,211.093c19.023-3.897,49.063-13.378,49.063-13.378 C406.028,222.243,372.579,253.463,348.043,211.093z"></path> </g> </g></svg>