<svg fill="#ffffff" version="1.1" id="Capa_1" xmlns="http://www.w3.org/2000/svg" xmlns:xlink="http://www.w3.org/1999/xlink" viewBox="0 0 46.086 46.085" xml:space="preserve"><g id="SVGRepo_bgCarrier" stroke-width="0"></g><g id="SVGRepo_tracerCarrier" stroke-linecap="round" stroke-linejoin="round"></g><g id="SVGRepo_iconCarrier"> <g> <path d="M43.458,6.251L23.807,0.116c-0.492-0.154-1.022-0.154-1.515,0L2.64,6.251C1.579,6.583,0.845,7.566,0.845,8.676 c0,21.942,8.944,30.398,16.271,34.68v0.037h0.034c1.743,0.962,3.395,1.786,4.812,2.456c0.346,0.163,0.716,0.236,1.087,0.236 c0.372,0,0.742-0.085,1.087-0.248c7.375-3.488,21.105-9.985,21.105-37.157C45.241,7.568,44.519,6.583,43.458,6.251z M39.92,14.454 H29.847V7.325l10.291,3.214C40.104,11.911,40.026,13.209,39.92,14.454z M16.301,7.309v7.145H6.178 c-0.107-1.244-0.184-2.542-0.218-3.915L16.301,7.309z M9.494,27.998h6.807v8.679C13.774,34.671,11.357,31.952,9.494,27.998z M29.847,36.637v-8.641h6.756C34.751,31.924,32.354,34.637,29.847,36.637z"></path> </g> </g></svg>